<svg width="1127" height="720" viewBox="0 0 1127 720" fill="none" xmlns="http://www.w3.org/2000/svg">
    <rect width="1126.45" height="720" fill="#191C1F"/>
    <rect x="50.3226" y="116.129" width="732.903" height="520" rx="18.0645" fill="#EB008D" stroke="white" stroke-width="5.16129"/>
    <rect x="852.903" y="116.129" width="200" height="139.355" rx="18.0645" fill="#0075EB" stroke="white" stroke-width="5.16129"/>
    <rect x="852.903" y="305.806" width="200" height="139.355" rx="18.0645" fill="#0075EB" stroke="white" stroke-width="5.16129"/>
    <rect x="852.903" y="496.774" width="200" height="139.355" rx="18.0645" fill="#0075EB" stroke="white" stroke-width="5.16129"/>
    <rect x="82.5806" y="148.387" width="194.839" height="454.194" rx="18.0645" fill="#EB008D" stroke="white" stroke-width="5.16129"/>
    <rect x="403.871" y="149.677" width="350.968" height="454.194" rx="18.0645" fill="#EB008D" stroke="white" stroke-width="5.16129"/>
    <rect x="481.29" y="181.935" width="194.839" height="184.516" rx="18.0645" fill="#EB008D" stroke="white" stroke-width="5.16129"/>
    <rect x="481.29" y="388.387" width="194.839" height="184.516" rx="18.0645" fill="#EB008D" stroke="white" stroke-width="5.16129"/>
    <rect x="308.387" y="148.387" width="64.5161" height="454.194" rx="18.0645" fill="#EB008D" stroke="white" stroke-width="5.16129"/>
    <path d="M850.323 185.806L811.613 163.457L811.613 208.155L850.323 185.806ZM785.806 189.677L815.484 189.677L815.484 181.935L785.806 181.935L785.806 189.677Z" fill="#EB008D"/>
    <path d="M850.323 384.516L811.613 362.167L811.613 406.865L850.323 384.516ZM785.806 388.387L815.484 388.387L815.484 380.645L785.806 380.645L785.806 388.387Z" fill="#EB008D"/>
    <path d="M850.323 570.323L811.613 547.974L811.613 592.672L850.323 570.323ZM785.806 574.194L815.484 574.194L815.484 566.452L785.806 566.452L785.806 574.194Z" fill="#EB008D"/>
    <path d="M158.332 384.61H163.987L161.205 375.84L158.332 384.61ZM158.619 370.744H163.881L171.774 393.032H166.724L165.287 388.451H157.077L155.534 393.032H150.665L158.619 370.744ZM185.625 384.791C185.625 383.521 185.333 382.397 184.748 381.419C184.173 380.442 183.236 379.953 181.935 379.953C180.373 379.953 179.299 380.694 178.715 382.175C178.412 382.962 178.261 383.96 178.261 385.169C178.261 387.085 178.77 388.43 179.788 389.207C180.393 389.66 181.109 389.887 181.935 389.887C183.135 389.887 184.047 389.423 184.672 388.496C185.307 387.569 185.625 386.334 185.625 384.791ZM183.175 376.188C185.101 376.188 186.729 376.898 188.059 378.32C189.4 379.741 190.071 381.828 190.071 384.58C190.071 387.483 189.415 389.696 188.105 391.218C186.804 392.74 185.126 393.501 183.07 393.501C181.759 393.501 180.67 393.173 179.803 392.518C179.33 392.155 178.866 391.626 178.412 390.93V399.519H174.148V376.55H178.276V378.985C178.74 378.269 179.234 377.705 179.758 377.291C180.716 376.555 181.855 376.188 183.175 376.188ZM204.556 384.791C204.556 383.521 204.264 382.397 203.679 381.419C203.105 380.442 202.167 379.953 200.867 379.953C199.304 379.953 198.231 380.694 197.646 382.175C197.344 382.962 197.192 383.96 197.192 385.169C197.192 387.085 197.702 388.43 198.72 389.207C199.325 389.66 200.04 389.887 200.867 389.887C202.066 389.887 202.979 389.423 203.604 388.496C204.239 387.569 204.556 386.334 204.556 384.791ZM202.107 376.188C204.032 376.188 205.66 376.898 206.991 378.32C208.332 379.741 209.002 381.828 209.002 384.58C209.002 387.483 208.347 389.696 207.036 391.218C205.736 392.74 204.057 393.501 202.001 393.501C200.69 393.501 199.602 393.173 198.735 392.518C198.261 392.155 197.797 391.626 197.344 390.93V399.519H193.08V376.55H197.208V378.985C197.671 378.269 198.165 377.705 198.689 377.291C199.647 376.555 200.786 376.188 202.107 376.188Z" fill="white"/>
    <path d="M525.015 277.765C525.156 278.783 525.433 279.544 525.847 280.048C526.603 280.966 527.898 281.424 529.733 281.424C530.831 281.424 531.724 281.303 532.409 281.062C533.709 280.598 534.36 279.736 534.36 278.476C534.36 277.74 534.037 277.17 533.392 276.767C532.747 276.374 531.734 276.026 530.353 275.724L527.994 275.195C525.675 274.67 524.072 274.101 523.185 273.486C521.683 272.458 520.932 270.85 520.932 268.662C520.932 266.666 521.658 265.008 523.11 263.688C524.561 262.367 526.693 261.707 529.506 261.707C531.855 261.707 533.856 262.332 535.509 263.582C537.172 264.822 538.044 266.626 538.125 268.995H533.649C533.568 267.654 532.984 266.702 531.895 266.137C531.169 265.764 530.267 265.578 529.188 265.578C527.989 265.578 527.031 265.82 526.315 266.303C525.6 266.787 525.242 267.463 525.242 268.33C525.242 269.126 525.595 269.721 526.3 270.114C526.754 270.376 527.722 270.683 529.203 271.036L533.044 271.959C534.728 272.362 535.998 272.901 536.855 273.577C538.185 274.625 538.851 276.142 538.851 278.128C538.851 280.164 538.069 281.858 536.507 283.209C534.954 284.549 532.757 285.22 529.914 285.22C527.011 285.22 524.728 284.559 523.064 283.239C521.401 281.908 520.569 280.084 520.569 277.765H525.015ZM551.794 274.076C551.714 273.461 551.507 272.906 551.174 272.412C550.69 271.747 549.939 271.414 548.921 271.414C547.47 271.414 546.477 272.135 545.942 273.577C545.66 274.343 545.519 275.361 545.519 276.631C545.519 277.841 545.66 278.814 545.942 279.549C546.456 280.92 547.424 281.606 548.846 281.606C549.854 281.606 550.569 281.334 550.993 280.789C551.416 280.245 551.673 279.539 551.764 278.672H556.164C556.063 279.983 555.59 281.223 554.743 282.392C553.392 284.277 551.391 285.22 548.74 285.22C546.089 285.22 544.138 284.433 542.888 282.861C541.638 281.288 541.013 279.247 541.013 276.737C541.013 273.904 541.703 271.702 543.084 270.129C544.466 268.556 546.371 267.77 548.8 267.77C550.867 267.77 552.555 268.234 553.866 269.161C555.186 270.089 555.968 271.727 556.209 274.076H551.794ZM568.276 267.74C569.294 267.74 570.217 267.916 571.043 268.269C571.88 268.622 572.565 269.161 573.1 269.887C573.553 270.502 573.83 271.137 573.931 271.792C574.032 272.438 574.082 273.496 574.082 274.968V284.645H569.682V274.62C569.682 273.733 569.531 273.017 569.229 272.473C568.835 271.707 568.09 271.324 566.991 271.324C565.852 271.324 564.985 271.707 564.39 272.473C563.805 273.229 563.513 274.313 563.513 275.724V284.645H559.219V262.432H563.513V270.31C564.138 269.353 564.859 268.688 565.675 268.315C566.502 267.931 567.369 267.74 568.276 267.74ZM584.622 271.278C583.624 271.278 582.848 271.591 582.293 272.216C581.749 272.841 581.406 273.688 581.265 274.756H587.964C587.893 273.617 587.545 272.755 586.92 272.17C586.305 271.576 585.539 271.278 584.622 271.278ZM584.622 267.725C585.993 267.725 587.228 267.982 588.326 268.496C589.425 269.01 590.332 269.822 591.048 270.93C591.693 271.908 592.112 273.042 592.303 274.333C592.414 275.089 592.459 276.177 592.439 277.599H581.159C581.22 279.252 581.739 280.411 582.717 281.077C583.311 281.49 584.027 281.697 584.864 281.697C585.751 281.697 586.472 281.445 587.026 280.941C587.328 280.668 587.596 280.29 587.827 279.806H592.228C592.117 280.784 591.608 281.777 590.7 282.785C589.289 284.388 587.313 285.19 584.773 285.19C582.676 285.19 580.826 284.514 579.224 283.163C577.621 281.813 576.819 279.615 576.819 276.571C576.819 273.718 577.54 271.53 578.982 270.008C580.433 268.486 582.313 267.725 584.622 267.725ZM613.775 267.8C614.501 267.8 615.217 267.942 615.922 268.224C616.628 268.506 617.268 269 617.843 269.706C618.306 270.28 618.619 270.986 618.78 271.823C618.881 272.377 618.931 273.189 618.931 274.257L618.901 284.645H614.486V274.151C614.486 273.526 614.385 273.012 614.183 272.609C613.8 271.843 613.095 271.46 612.066 271.46C610.877 271.46 610.055 271.954 609.602 272.942C609.37 273.466 609.254 274.096 609.254 274.832V284.645H604.914V274.832C604.914 273.854 604.813 273.143 604.612 272.7C604.249 271.903 603.538 271.505 602.48 271.505C601.25 271.505 600.423 271.903 600 272.7C599.768 273.153 599.652 273.829 599.652 274.726V284.645H595.282V268.194H599.471V270.598C600.005 269.741 600.509 269.131 600.983 268.768C601.819 268.123 602.903 267.8 604.234 267.8C605.494 267.8 606.512 268.078 607.288 268.632C607.913 269.146 608.387 269.806 608.709 270.613C609.274 269.645 609.975 268.934 610.811 268.481C611.698 268.027 612.686 267.8 613.775 267.8ZM631.996 276.631C631.724 276.802 631.446 276.944 631.164 277.054C630.892 277.155 630.514 277.251 630.03 277.342L629.062 277.523C628.155 277.684 627.505 277.881 627.112 278.113C626.446 278.506 626.114 279.116 626.114 279.943C626.114 280.678 626.315 281.213 626.719 281.545C627.132 281.868 627.631 282.029 628.216 282.029C629.143 282.029 629.995 281.757 630.771 281.213C631.557 280.668 631.966 279.675 631.996 278.234V276.631ZM629.38 274.62C630.176 274.519 630.746 274.393 631.089 274.242C631.703 273.98 632.011 273.572 632.011 273.017C632.011 272.342 631.774 271.878 631.3 271.626C630.836 271.364 630.151 271.233 629.244 271.233C628.226 271.233 627.505 271.485 627.081 271.989C626.779 272.362 626.577 272.866 626.477 273.501H622.318C622.409 272.059 622.812 270.875 623.528 269.948C624.667 268.496 626.623 267.77 629.395 267.77C631.199 267.77 632.802 268.128 634.203 268.844C635.605 269.559 636.305 270.91 636.305 272.896V280.457C636.305 280.981 636.315 281.616 636.335 282.362C636.366 282.926 636.451 283.309 636.593 283.511C636.734 283.713 636.945 283.879 637.228 284.01V284.645H632.54C632.409 284.313 632.318 284 632.268 283.708C632.218 283.415 632.177 283.083 632.147 282.71C631.552 283.355 630.867 283.904 630.091 284.358C629.163 284.892 628.115 285.159 626.945 285.159C625.453 285.159 624.219 284.736 623.241 283.889C622.273 283.032 621.789 281.823 621.789 280.26C621.789 278.234 622.57 276.767 624.133 275.86C624.99 275.366 626.25 275.013 627.913 274.801L629.38 274.62Z" fill="white"/>
    <path d="M290.282 52.8468C289.812 50.8172 288.663 49.3992 286.835 48.5927C285.813 48.1492 284.677 47.9274 283.427 47.9274C281.035 47.9274 279.066 48.8347 277.52 50.6492C275.988 52.4503 275.222 55.1653 275.222 58.7943C275.222 62.4503 276.055 65.0376 277.722 66.5564C279.388 68.0753 281.284 68.8347 283.407 68.8347C285.491 68.8347 287.198 68.2366 288.528 67.0403C289.859 65.8306 290.679 64.2513 290.988 62.3024H284.113V57.3427H296.492V73.2903H292.379L291.754 69.5806C290.558 70.9919 289.483 71.9866 288.528 72.5645C286.888 73.5726 284.872 74.0766 282.48 74.0766C278.542 74.0766 275.316 72.7124 272.802 69.9839C270.181 67.2419 268.871 63.4919 268.871 58.7339C268.871 53.922 270.195 50.0645 272.843 47.1613C275.491 44.2581 278.992 42.8064 283.347 42.8064C287.124 42.8064 290.155 43.7675 292.44 45.6895C294.738 47.5981 296.055 49.9839 296.391 52.8468H290.282ZM313.911 50.7903C314.019 50.7903 314.106 50.797 314.173 50.8105C314.254 50.8105 314.422 50.8172 314.677 50.8306V56.7177C314.315 56.6774 313.992 56.6505 313.71 56.6371C313.427 56.6236 313.199 56.6169 313.024 56.6169C310.712 56.6169 309.16 57.3696 308.367 58.875C307.923 59.7218 307.702 61.0255 307.702 62.7863V73.2903H301.915V51.3145H307.399V55.1452C308.286 53.6801 309.059 52.6788 309.718 52.1411C310.793 51.2406 312.191 50.7903 313.911 50.7903ZM330.181 62.6048C329.819 62.8333 329.449 63.0215 329.073 63.1693C328.71 63.3038 328.206 63.4314 327.561 63.5524L326.27 63.7943C325.061 64.0094 324.194 64.2715 323.669 64.5806C322.782 65.1048 322.339 65.918 322.339 67.0202C322.339 68.0013 322.608 68.7137 323.145 69.1572C323.696 69.5874 324.362 69.8024 325.141 69.8024C326.378 69.8024 327.513 69.4395 328.548 68.7137C329.597 67.9879 330.141 66.664 330.181 64.7419V62.6048ZM326.694 59.9234C327.755 59.789 328.515 59.621 328.972 59.4193C329.792 59.0699 330.202 58.5255 330.202 57.7863C330.202 56.8857 329.886 56.2675 329.254 55.9314C328.636 55.582 327.722 55.4072 326.512 55.4072C325.155 55.4072 324.194 55.7433 323.629 56.4153C323.226 56.9126 322.957 57.5847 322.823 58.4314H317.278C317.399 56.5094 317.937 54.9301 318.891 53.6935C320.41 51.7581 323.018 50.7903 326.714 50.7903C329.12 50.7903 331.257 51.2675 333.125 52.2218C334.993 53.1761 335.927 54.9771 335.927 57.625V67.7056C335.927 68.4046 335.941 69.2513 335.968 70.246C336.008 70.9986 336.122 71.5094 336.311 71.7782C336.499 72.047 336.781 72.2688 337.157 72.4435V73.2903H330.907C330.733 72.8468 330.612 72.4301 330.544 72.0403C330.477 71.6505 330.423 71.207 330.383 70.7097C329.59 71.5699 328.676 72.3024 327.641 72.9072C326.405 73.6196 325.007 73.9758 323.448 73.9758C321.458 73.9758 319.812 73.4113 318.508 72.2822C317.218 71.1398 316.573 69.5269 316.573 67.4435C316.573 64.7419 317.614 62.7863 319.698 61.5766C320.84 60.918 322.52 60.4476 324.738 60.1653L326.694 59.9234ZM356.19 62.3024C356.19 60.6089 355.8 59.1102 355.02 57.8064C354.254 56.5027 353.004 55.8508 351.27 55.8508C349.187 55.8508 347.755 56.8387 346.976 58.8145C346.573 59.8629 346.371 61.1935 346.371 62.8064C346.371 65.3602 347.05 67.1546 348.407 68.1895C349.214 68.7943 350.168 69.0968 351.27 69.0968C352.87 69.0968 354.086 68.4785 354.919 67.2419C355.766 66.0054 356.19 64.3589 356.19 62.3024ZM352.923 50.8306C355.491 50.8306 357.661 51.7782 359.436 53.6734C361.223 55.5685 362.117 58.3508 362.117 62.0202C362.117 65.8911 361.243 68.8414 359.496 70.871C357.762 72.9005 355.524 73.9153 352.782 73.9153C351.035 73.9153 349.583 73.4785 348.427 72.6048C347.796 72.121 347.177 71.4153 346.573 70.4879V81.9395H340.887V51.3145H346.391V54.5605C347.009 53.6062 347.668 52.8535 348.367 52.3024C349.644 51.3212 351.163 50.8306 352.923 50.8306ZM378.407 50.75C379.765 50.75 380.995 50.9852 382.097 51.4556C383.212 51.9261 384.126 52.6452 384.839 53.6129C385.444 54.4328 385.813 55.2796 385.948 56.1532C386.082 57.0134 386.149 58.4247 386.149 60.3871V73.2903H380.282V59.9234C380.282 58.7406 380.081 57.7863 379.677 57.0605C379.153 56.039 378.159 55.5282 376.694 55.5282C375.175 55.5282 374.019 56.039 373.226 57.0605C372.446 58.0685 372.056 59.5134 372.056 61.3952V73.2903H366.331V43.6734H372.056V54.1774C372.89 52.9005 373.851 52.0134 374.94 51.5161C376.042 51.0054 377.198 50.75 378.407 50.75ZM405.081 68.8548C405.793 68.8548 406.479 68.7675 407.137 68.5927C407.5 68.4986 407.964 68.3306 408.528 68.0887L405.524 65.2258L408.73 61.879L411.734 64.7419C412.204 63.7742 412.534 62.9274 412.722 62.2016C413.017 61.1129 413.165 59.8427 413.165 58.3911C413.165 55.0578 412.48 52.4839 411.109 50.6693C409.751 48.8414 407.762 47.9274 405.141 47.9274C402.681 47.9274 400.719 48.8011 399.254 50.5484C397.789 52.2957 397.056 54.9099 397.056 58.3911C397.056 62.4637 398.105 65.3804 400.202 67.1411C401.559 68.2836 403.186 68.8548 405.081 68.8548ZM419.375 57.9476C419.375 60.5954 419.052 62.8132 418.407 64.6008C417.883 66.3078 417.11 67.7258 416.089 68.8548L419.516 72.0605L416.27 75.4476L412.681 72.0605C411.593 72.7191 410.652 73.1828 409.859 73.4516C408.528 73.8952 406.936 74.1169 405.081 74.1169C401.21 74.1169 398.011 72.961 395.484 70.6492C392.419 67.8669 390.887 63.7809 390.887 58.3911C390.887 52.961 392.46 48.8548 395.605 46.0726C398.172 43.8011 401.364 42.6653 405.181 42.6653C409.026 42.6653 412.251 43.8683 414.859 46.2742C417.87 49.0564 419.375 52.9476 419.375 57.9476ZM424.133 43.5726H430.343V67.9476H445.061V73.2903H424.133V43.5726ZM473.528 59.1976C473.421 58.3777 473.145 57.6384 472.702 56.9798C472.056 56.0927 471.055 55.6492 469.698 55.6492C467.762 55.6492 466.438 56.6102 465.726 58.5322C465.349 59.5538 465.161 60.9113 465.161 62.6048C465.161 64.2177 465.349 65.5148 465.726 66.496C466.411 68.3239 467.702 69.2379 469.597 69.2379C470.941 69.2379 471.895 68.875 472.46 68.1492C473.024 67.4234 473.367 66.4825 473.488 65.3266H479.355C479.22 67.0739 478.589 68.7271 477.46 70.2863C475.659 72.7997 472.991 74.0564 469.456 74.0564C465.921 74.0564 463.32 73.0081 461.653 70.9113C459.987 68.8145 459.153 66.0927 459.153 62.746C459.153 58.9691 460.074 56.0322 461.915 53.9355C463.757 51.8387 466.297 50.7903 469.536 50.7903C472.292 50.7903 474.543 51.4086 476.29 52.6452C478.051 53.8817 479.093 56.0659 479.415 59.1976H473.528ZM489.254 73.2903H483.508V43.5726H489.254V73.2903ZM500.786 48.6935H494.96V43.3911H500.786V48.6935ZM494.96 51.3145H500.786V73.2903H494.96V51.3145ZM515.04 55.4677C513.71 55.4677 512.675 55.8844 511.935 56.7177C511.21 57.5511 510.753 58.6801 510.565 60.1048H519.496C519.402 58.586 518.938 57.4368 518.105 56.6572C517.285 55.8642 516.263 55.4677 515.04 55.4677ZM515.04 50.7298C516.868 50.7298 518.515 51.0726 519.98 51.7581C521.445 52.4435 522.655 53.5255 523.609 55.004C524.469 56.3078 525.027 57.8199 525.282 59.5403C525.43 60.5484 525.491 62 525.464 63.8952H510.423C510.504 66.0995 511.196 67.6452 512.5 68.5322C513.293 69.0833 514.247 69.3589 515.363 69.3589C516.546 69.3589 517.507 69.0228 518.246 68.3508C518.649 67.9879 519.005 67.4839 519.315 66.8387H525.181C525.034 68.1425 524.355 69.4664 523.145 70.8105C521.263 72.9476 518.629 74.0161 515.242 74.0161C512.446 74.0161 509.98 73.1156 507.843 71.3145C505.706 69.5134 504.637 66.5833 504.637 62.5242C504.637 58.7204 505.598 55.8038 507.52 53.7742C509.456 51.7446 511.962 50.7298 515.04 50.7298ZM541.532 50.7903C543.804 50.7903 545.659 51.3884 547.097 52.5847C548.548 53.7675 549.274 55.7366 549.274 58.4919V73.2903H543.387V59.9234C543.387 58.7675 543.233 57.8804 542.923 57.2621C542.359 56.1331 541.284 55.5685 539.698 55.5685C537.749 55.5685 536.411 56.3952 535.685 58.0484C535.309 58.922 535.121 60.0376 535.121 61.3952V73.2903H529.395V51.3548H534.94V54.5605C535.679 53.4314 536.378 52.6183 537.036 52.121C538.219 51.2339 539.718 50.7903 541.532 50.7903ZM552.339 55.6089V51.5161H555.403V45.3871H561.089V51.5161H564.657V55.6089H561.089V67.2218C561.089 68.1223 561.203 68.6868 561.431 68.9153C561.66 69.1304 562.359 69.2379 563.528 69.2379C563.703 69.2379 563.884 69.2379 564.073 69.2379C564.274 69.2245 564.469 69.211 564.657 69.1976V73.4919L561.936 73.5927C559.22 73.6868 557.366 73.2164 556.371 72.1814C555.726 71.5228 555.403 70.5081 555.403 69.1371V55.6089H552.339ZM566.613 59.0564H578.186V64.5H566.613V59.0564ZM591.956 69.2379C593.636 69.2379 594.926 68.6398 595.827 67.4435C596.727 66.2473 597.177 64.547 597.177 62.3427C597.177 60.1384 596.727 58.4449 595.827 57.2621C594.926 56.0659 593.636 55.4677 591.956 55.4677C590.276 55.4677 588.979 56.0659 588.065 57.2621C587.164 58.4449 586.714 60.1384 586.714 62.3427C586.714 64.547 587.164 66.2473 588.065 67.4435C588.979 68.6398 590.276 69.2379 591.956 69.2379ZM603.206 62.3427C603.206 65.5685 602.278 68.3306 600.423 70.629C598.569 72.914 595.753 74.0564 591.976 74.0564C588.199 74.0564 585.383 72.914 583.528 70.629C581.673 68.3306 580.746 65.5685 580.746 62.3427C580.746 59.1707 581.673 56.422 583.528 54.0968C585.383 51.7715 588.199 50.6089 591.976 50.6089C595.753 50.6089 598.569 51.7715 600.423 54.0968C602.278 56.422 603.206 59.1707 603.206 62.3427ZM619.516 50.7903C621.788 50.7903 623.642 51.3884 625.081 52.5847C626.532 53.7675 627.258 55.7366 627.258 58.4919V73.2903H621.371V59.9234C621.371 58.7675 621.216 57.8804 620.907 57.2621C620.343 56.1331 619.267 55.5685 617.681 55.5685C615.733 55.5685 614.395 56.3952 613.669 58.0484C613.293 58.922 613.105 60.0376 613.105 61.3952V73.2903H607.379V51.3548H612.923V54.5605C613.663 53.4314 614.362 52.6183 615.02 52.121C616.203 51.2339 617.702 50.7903 619.516 50.7903ZM638.448 73.2903H632.702V43.5726H638.448V73.2903ZM644.96 77.504L645.685 77.5443C646.25 77.5712 646.788 77.5511 647.298 77.4839C647.809 77.4167 648.239 77.2621 648.589 77.0202C648.925 76.7917 649.234 76.3145 649.516 75.5887C649.812 74.8629 649.933 74.4193 649.879 74.2581L641.815 51.3145H648.206L653.004 67.5242L657.54 51.3145H663.649L656.109 72.9274C654.657 77.0941 653.508 79.6747 652.661 80.6693C651.815 81.6774 650.121 82.1814 647.581 82.1814C647.07 82.1814 646.66 82.1747 646.351 82.1613C646.042 82.1613 645.578 82.1411 644.96 82.1008V77.504ZM690.665 62.6048C690.302 62.8333 689.933 63.0215 689.556 63.1693C689.194 63.3038 688.69 63.4314 688.044 63.5524L686.754 63.7943C685.544 64.0094 684.677 64.2715 684.153 64.5806C683.266 65.1048 682.823 65.918 682.823 67.0202C682.823 68.0013 683.091 68.7137 683.629 69.1572C684.18 69.5874 684.845 69.8024 685.625 69.8024C686.862 69.8024 687.997 69.4395 689.032 68.7137C690.081 67.9879 690.625 66.664 690.665 64.7419V62.6048ZM687.177 59.9234C688.239 59.789 688.999 59.621 689.456 59.4193C690.276 59.0699 690.685 58.5255 690.685 57.7863C690.685 56.8857 690.37 56.2675 689.738 55.9314C689.12 55.582 688.206 55.4072 686.996 55.4072C685.638 55.4072 684.677 55.7433 684.113 56.4153C683.71 56.9126 683.441 57.5847 683.306 58.4314H677.762C677.883 56.5094 678.421 54.9301 679.375 53.6935C680.894 51.7581 683.501 50.7903 687.198 50.7903C689.604 50.7903 691.741 51.2675 693.609 52.2218C695.477 53.1761 696.411 54.9771 696.411 57.625V67.7056C696.411 68.4046 696.425 69.2513 696.452 70.246C696.492 70.9986 696.606 71.5094 696.794 71.7782C696.983 72.047 697.265 72.2688 697.641 72.4435V73.2903H691.391C691.216 72.8468 691.095 72.4301 691.028 72.0403C690.961 71.6505 690.907 71.207 690.867 70.7097C690.074 71.5699 689.16 72.3024 688.125 72.9072C686.888 73.6196 685.491 73.9758 683.931 73.9758C681.942 73.9758 680.296 73.4113 678.992 72.2822C677.702 71.1398 677.056 69.5269 677.056 67.4435C677.056 64.7419 678.098 62.7863 680.181 61.5766C681.324 60.918 683.004 60.4476 685.222 60.1653L687.177 59.9234ZM716.673 62.3024C716.673 60.6089 716.284 59.1102 715.504 57.8064C714.738 56.5027 713.488 55.8508 711.754 55.8508C709.671 55.8508 708.239 56.8387 707.46 58.8145C707.056 59.8629 706.855 61.1935 706.855 62.8064C706.855 65.3602 707.534 67.1546 708.891 68.1895C709.698 68.7943 710.652 69.0968 711.754 69.0968C713.353 69.0968 714.57 68.4785 715.403 67.2419C716.25 66.0054 716.673 64.3589 716.673 62.3024ZM713.407 50.8306C715.974 50.8306 718.145 51.7782 719.919 53.6734C721.707 55.5685 722.601 58.3508 722.601 62.0202C722.601 65.8911 721.727 68.8414 719.98 70.871C718.246 72.9005 716.008 73.9153 713.266 73.9153C711.519 73.9153 710.067 73.4785 708.911 72.6048C708.28 72.121 707.661 71.4153 707.056 70.4879V81.9395H701.371V51.3145H706.875V54.5605C707.493 53.6062 708.152 52.8535 708.851 52.3024C710.128 51.3212 711.646 50.8306 713.407 50.8306ZM741.915 62.3024C741.915 60.6089 741.526 59.1102 740.746 57.8064C739.98 56.5027 738.73 55.8508 736.996 55.8508C734.913 55.8508 733.481 56.8387 732.702 58.8145C732.298 59.8629 732.097 61.1935 732.097 62.8064C732.097 65.3602 732.776 67.1546 734.133 68.1895C734.94 68.7943 735.894 69.0968 736.996 69.0968C738.595 69.0968 739.812 68.4785 740.645 67.2419C741.492 66.0054 741.915 64.3589 741.915 62.3024ZM738.649 50.8306C741.216 50.8306 743.387 51.7782 745.161 53.6734C746.949 55.5685 747.843 58.3508 747.843 62.0202C747.843 65.8911 746.969 68.8414 745.222 70.871C743.488 72.9005 741.25 73.9153 738.508 73.9153C736.761 73.9153 735.309 73.4785 734.153 72.6048C733.522 72.121 732.903 71.4153 732.298 70.4879V81.9395H726.613V51.3145H732.117V54.5605C732.735 53.6062 733.394 52.8535 734.093 52.3024C735.37 51.3212 736.888 50.8306 738.649 50.8306ZM763.952 50.7903C764.059 50.7903 764.147 50.797 764.214 50.8105C764.294 50.8105 764.462 50.8172 764.718 50.8306V56.7177C764.355 56.6774 764.032 56.6505 763.75 56.6371C763.468 56.6236 763.239 56.6169 763.065 56.6169C760.753 56.6169 759.2 57.3696 758.407 58.875C757.964 59.7218 757.742 61.0255 757.742 62.7863V73.2903H751.956V51.3145H757.44V55.1452C758.327 53.6801 759.099 52.6788 759.758 52.1411C760.833 51.2406 762.231 50.7903 763.952 50.7903ZM777.964 69.2379C779.644 69.2379 780.934 68.6398 781.835 67.4435C782.735 66.2473 783.185 64.547 783.185 62.3427C783.185 60.1384 782.735 58.4449 781.835 57.2621C780.934 56.0659 779.644 55.4677 777.964 55.4677C776.284 55.4677 774.987 56.0659 774.073 57.2621C773.172 58.4449 772.722 60.1384 772.722 62.3427C772.722 64.547 773.172 66.2473 774.073 67.4435C774.987 68.6398 776.284 69.2379 777.964 69.2379ZM789.214 62.3427C789.214 65.5685 788.286 68.3306 786.431 70.629C784.577 72.914 781.761 74.0564 777.984 74.0564C774.207 74.0564 771.391 72.914 769.536 70.629C767.681 68.3306 766.754 65.5685 766.754 62.3427C766.754 59.1707 767.681 56.422 769.536 54.0968C771.391 51.7715 774.207 50.6089 777.984 50.6089C781.761 50.6089 784.577 51.7715 786.431 54.0968C788.286 56.422 789.214 59.1707 789.214 62.3427ZM805.464 62.6048C805.101 62.8333 804.731 63.0215 804.355 63.1693C803.992 63.3038 803.488 63.4314 802.843 63.5524L801.552 63.7943C800.343 64.0094 799.476 64.2715 798.952 64.5806C798.065 65.1048 797.621 65.918 797.621 67.0202C797.621 68.0013 797.89 68.7137 798.427 69.1572C798.979 69.5874 799.644 69.8024 800.423 69.8024C801.66 69.8024 802.796 69.4395 803.831 68.7137C804.879 67.9879 805.423 66.664 805.464 64.7419V62.6048ZM801.976 59.9234C803.038 59.789 803.797 59.621 804.254 59.4193C805.074 59.0699 805.484 58.5255 805.484 57.7863C805.484 56.8857 805.168 56.2675 804.536 55.9314C803.918 55.582 803.004 55.4072 801.794 55.4072C800.437 55.4072 799.476 55.7433 798.911 56.4153C798.508 56.9126 798.239 57.5847 798.105 58.4314H792.561C792.681 56.5094 793.219 54.9301 794.173 53.6935C795.692 51.7581 798.3 50.7903 801.996 50.7903C804.402 50.7903 806.539 51.2675 808.407 52.2218C810.276 53.1761 811.21 54.9771 811.21 57.625V67.7056C811.21 68.4046 811.223 69.2513 811.25 70.246C811.29 70.9986 811.405 71.5094 811.593 71.7782C811.781 72.047 812.063 72.2688 812.44 72.4435V73.2903H806.19C806.015 72.8468 805.894 72.4301 805.827 72.0403C805.759 71.6505 805.706 71.207 805.665 70.7097C804.872 71.5699 803.958 72.3024 802.923 72.9072C801.687 73.6196 800.289 73.9758 798.73 73.9758C796.741 73.9758 795.094 73.4113 793.79 72.2822C792.5 71.1398 791.855 69.5269 791.855 67.4435C791.855 64.7419 792.897 62.7863 794.98 61.5766C796.122 60.918 797.802 60.4476 800.02 60.1653L801.976 59.9234ZM829.456 59.1976C829.348 58.3777 829.073 57.6384 828.629 56.9798C827.984 56.0927 826.983 55.6492 825.625 55.6492C823.689 55.6492 822.366 56.6102 821.653 58.5322C821.277 59.5538 821.089 60.9113 821.089 62.6048C821.089 64.2177 821.277 65.5148 821.653 66.496C822.339 68.3239 823.629 69.2379 825.524 69.2379C826.868 69.2379 827.823 68.875 828.387 68.1492C828.952 67.4234 829.294 66.4825 829.415 65.3266H835.282C835.148 67.0739 834.516 68.7271 833.387 70.2863C831.586 72.7997 828.918 74.0564 825.383 74.0564C821.848 74.0564 819.247 73.0081 817.581 70.9113C815.914 68.8145 815.081 66.0927 815.081 62.746C815.081 58.9691 816.001 56.0322 817.843 53.9355C819.684 51.8387 822.224 50.7903 825.464 50.7903C828.219 50.7903 830.47 51.4086 832.218 52.6452C833.978 53.8817 835.02 56.0659 835.343 59.1976H829.456ZM851.431 50.75C852.789 50.75 854.019 50.9852 855.121 51.4556C856.237 51.9261 857.151 52.6452 857.863 53.6129C858.468 54.4328 858.837 55.2796 858.972 56.1532C859.106 57.0134 859.173 58.4247 859.173 60.3871V73.2903H853.306V59.9234C853.306 58.7406 853.105 57.7863 852.702 57.0605C852.177 56.039 851.183 55.5282 849.718 55.5282C848.199 55.5282 847.043 56.039 846.25 57.0605C845.47 58.0685 845.081 59.5134 845.081 61.3952V73.2903H839.355V43.6734H845.081V54.1774C845.914 52.9005 846.875 52.0134 847.964 51.5161C849.066 51.0054 850.222 50.75 851.431 50.75Z" fill="white"/>
    <path d="M922.601 185.9H928.256L925.474 177.13L922.601 185.9ZM922.888 172.034H928.15L936.043 194.323H930.993L929.556 189.741H921.346L919.803 194.323H914.934L922.888 172.034ZM951.436 179.126C951.436 177.967 951.129 177.14 950.514 176.646C949.909 176.152 949.057 175.905 947.959 175.905H943.619V182.468H947.959C949.057 182.468 949.909 182.201 950.514 181.666C951.129 181.132 951.436 180.285 951.436 179.126ZM956.048 179.096C956.048 181.727 955.383 183.587 954.052 184.675C952.722 185.764 950.822 186.308 948.352 186.308H943.619V194.323H938.992V172.034H948.7C950.937 172.034 952.722 172.609 954.052 173.758C955.383 174.907 956.048 176.686 956.048 179.096ZM963.805 194.323H959.178V172.034H963.805V194.323ZM976.567 179.202V176.268C977.928 176.208 978.881 176.117 979.425 175.996C980.292 175.804 980.998 175.421 981.542 174.847C981.915 174.454 982.198 173.929 982.389 173.274C982.5 172.881 982.555 172.589 982.555 172.397H986.139V194.323H981.724V179.202H976.567Z" fill="white"/>
    <path d="M922.601 376.868H928.256L925.474 368.098L922.601 376.868ZM922.888 363.002H928.15L936.043 385.29H930.993L929.556 380.709H921.346L919.803 385.29H914.934L922.888 363.002ZM951.436 370.094C951.436 368.934 951.129 368.108 950.514 367.614C949.909 367.12 949.057 366.873 947.959 366.873H943.619V373.436H947.959C949.057 373.436 949.909 373.168 950.514 372.634C951.129 372.1 951.436 371.253 951.436 370.094ZM956.048 370.064C956.048 372.695 955.383 374.554 954.052 375.643C952.722 376.732 950.822 377.276 948.352 377.276H943.619V385.29H938.992V363.002H948.7C950.937 363.002 952.722 363.577 954.052 364.726C955.383 365.875 956.048 367.654 956.048 370.064ZM963.805 385.29H959.178V363.002H963.805V385.29ZM975.388 385.29C975.428 383.718 975.766 382.281 976.401 380.981C977.016 379.519 978.468 377.972 980.756 376.339C982.742 374.917 984.027 373.899 984.612 373.284C985.509 372.327 985.958 371.278 985.958 370.139C985.958 369.212 985.701 368.441 985.186 367.826C984.672 367.211 983.936 366.903 982.979 366.903C981.668 366.903 980.776 367.392 980.302 368.37C980.03 368.934 979.869 369.832 979.818 371.062H975.63C975.701 369.197 976.038 367.69 976.643 366.54C977.792 364.353 979.834 363.259 982.767 363.259C985.086 363.259 986.93 363.904 988.301 365.195C989.672 366.475 990.358 368.173 990.358 370.29C990.358 371.913 989.874 373.355 988.906 374.615C988.271 375.452 987.228 376.384 985.776 377.412L984.052 378.637C982.974 379.403 982.233 379.958 981.83 380.3C981.436 380.643 981.104 381.041 980.832 381.495H990.403V385.29H975.388Z" fill="white"/>
    <path d="M922.601 567.836H928.256L925.474 559.066L922.601 567.836ZM922.888 553.97H928.15L936.043 576.258H930.993L929.556 571.676H921.346L919.803 576.258H914.934L922.888 553.97ZM951.436 561.061C951.436 559.902 951.129 559.076 950.514 558.582C949.909 558.088 949.057 557.841 947.959 557.841H943.619V564.403H947.959C949.057 564.403 949.909 564.136 950.514 563.602C951.129 563.068 951.436 562.221 951.436 561.061ZM956.048 561.031C956.048 563.662 955.383 565.522 954.052 566.611C952.722 567.7 950.822 568.244 948.352 568.244H943.619V576.258H938.992V553.97H948.7C950.937 553.97 952.722 554.544 954.052 555.694C955.383 556.843 956.048 558.622 956.048 561.031ZM963.805 576.258H959.178V553.97H963.805V576.258ZM979.471 569.529C979.471 570.406 979.612 571.132 979.894 571.707C980.418 572.765 981.371 573.294 982.752 573.294C983.599 573.294 984.335 573.007 984.96 572.432C985.595 571.848 985.912 571.011 985.912 569.922C985.912 568.481 985.328 567.518 984.158 567.034C983.493 566.762 982.445 566.626 981.013 566.626V563.541C982.414 563.521 983.392 563.385 983.947 563.133C984.904 562.71 985.383 561.853 985.383 560.562C985.383 559.726 985.136 559.045 984.642 558.521C984.158 557.997 983.473 557.735 982.586 557.735C981.567 557.735 980.816 558.057 980.333 558.703C979.859 559.348 979.632 560.21 979.652 561.288H975.63C975.67 560.2 975.857 559.166 976.189 558.189C976.542 557.332 977.097 556.54 977.853 555.815C978.417 555.3 979.088 554.907 979.864 554.635C980.64 554.363 981.593 554.227 982.722 554.227C984.818 554.227 986.507 554.771 987.787 555.86C989.078 556.939 989.723 558.39 989.723 560.215C989.723 561.505 989.34 562.594 988.574 563.481C988.09 564.035 987.586 564.413 987.061 564.615C987.455 564.615 988.019 564.953 988.755 565.628C989.854 566.646 990.403 568.037 990.403 569.801C990.403 571.656 989.758 573.289 988.468 574.701C987.187 576.102 985.287 576.802 982.767 576.802C979.662 576.802 977.505 575.789 976.295 573.763C975.66 572.684 975.307 571.273 975.237 569.529H979.471Z" fill="white"/>
    <path d="M511.633 471.389V477.377H516.91C517.959 477.377 518.745 477.256 519.269 477.014C520.197 476.591 520.66 475.754 520.66 474.504C520.66 473.153 520.212 472.246 519.315 471.782C518.81 471.52 518.054 471.389 517.046 471.389H511.633ZM518.014 467.518C519.577 467.548 520.776 467.74 521.613 468.093C522.46 468.446 523.175 468.965 523.76 469.65C524.244 470.215 524.627 470.84 524.909 471.525C525.192 472.211 525.333 472.992 525.333 473.869C525.333 474.927 525.066 475.971 524.531 476.999C523.997 478.017 523.115 478.738 521.885 479.161C522.913 479.575 523.639 480.164 524.062 480.93C524.496 481.686 524.713 482.846 524.713 484.408V485.905C524.713 486.923 524.753 487.614 524.834 487.977C524.955 488.551 525.237 488.975 525.68 489.247V489.806H520.554C520.413 489.312 520.312 488.914 520.252 488.612C520.131 487.987 520.066 487.347 520.055 486.692L520.025 484.62C520.005 483.199 519.743 482.251 519.239 481.777C518.745 481.303 517.812 481.067 516.442 481.067H511.633V489.806H507.082V467.518H518.014ZM535.509 476.439C534.511 476.439 533.735 476.752 533.18 477.377C532.636 478.002 532.293 478.849 532.152 479.917H538.851C538.78 478.778 538.432 477.916 537.807 477.332C537.193 476.737 536.426 476.439 535.509 476.439ZM535.509 472.886C536.88 472.886 538.115 473.143 539.214 473.657C540.312 474.171 541.22 474.983 541.935 476.092C542.581 477.07 542.999 478.204 543.191 479.494C543.301 480.25 543.347 481.339 543.327 482.76H532.046C532.107 484.413 532.626 485.573 533.604 486.238C534.199 486.651 534.914 486.858 535.751 486.858C536.638 486.858 537.359 486.606 537.913 486.102C538.216 485.83 538.483 485.452 538.715 484.968H543.115C543.004 485.946 542.495 486.938 541.588 487.947C540.176 489.549 538.201 490.351 535.66 490.351C533.563 490.351 531.714 489.675 530.111 488.325C528.508 486.974 527.707 484.776 527.707 481.732C527.707 478.879 528.427 476.692 529.869 475.169C531.321 473.647 533.201 472.886 535.509 472.886ZM549.602 484.544C549.693 485.31 549.889 485.855 550.192 486.177C550.726 486.752 551.714 487.039 553.155 487.039C554.002 487.039 554.672 486.913 555.166 486.661C555.67 486.409 555.922 486.031 555.922 485.527C555.922 485.043 555.721 484.675 555.318 484.423C554.914 484.171 553.417 483.738 550.827 483.123C548.962 482.659 547.646 482.08 546.88 481.384C546.114 480.699 545.731 479.711 545.731 478.42C545.731 476.898 546.326 475.593 547.515 474.504C548.715 473.405 550.398 472.856 552.566 472.856C554.622 472.856 556.295 473.269 557.586 474.096C558.886 474.912 559.632 476.329 559.824 478.345H555.514C555.454 477.79 555.297 477.352 555.045 477.029C554.572 476.445 553.765 476.152 552.626 476.152C551.688 476.152 551.018 476.298 550.615 476.591C550.222 476.883 550.025 477.226 550.025 477.619C550.025 478.113 550.237 478.471 550.66 478.693C551.084 478.924 552.581 479.323 555.151 479.887C556.865 480.29 558.15 480.9 559.007 481.717C559.854 482.543 560.277 483.577 560.277 484.817C560.277 486.45 559.667 487.785 558.448 488.824C557.238 489.852 555.363 490.366 552.823 490.366C550.232 490.366 548.317 489.822 547.077 488.733C545.847 487.634 545.232 486.238 545.232 484.544H549.602ZM570.877 486.767C572.137 486.767 573.105 486.319 573.78 485.421C574.456 484.524 574.793 483.249 574.793 481.596C574.793 479.943 574.456 478.672 573.78 477.785C573.105 476.888 572.137 476.439 570.877 476.439C569.617 476.439 568.644 476.888 567.959 477.785C567.283 478.672 566.946 479.943 566.946 481.596C566.946 483.249 567.283 484.524 567.959 485.421C568.644 486.319 569.617 486.767 570.877 486.767ZM579.315 481.596C579.315 484.015 578.619 486.087 577.228 487.81C575.837 489.524 573.725 490.381 570.892 490.381C568.059 490.381 565.948 489.524 564.556 487.81C563.165 486.087 562.47 484.015 562.47 481.596C562.47 479.217 563.165 477.155 564.556 475.411C565.948 473.667 568.059 472.795 570.892 472.795C573.725 472.795 575.837 473.667 577.228 475.411C578.619 477.155 579.315 479.217 579.315 481.596ZM586.815 489.806H582.505V467.518H586.815V489.806ZM601.195 473.325H605.822L599.879 489.806H595.328L589.415 473.325H594.254L597.686 485.482L601.195 473.325ZM614.773 476.439C613.775 476.439 612.999 476.752 612.445 477.377C611.9 478.002 611.557 478.849 611.416 479.917H618.115C618.044 478.778 617.697 477.916 617.072 477.332C616.457 476.737 615.691 476.439 614.773 476.439ZM614.773 472.886C616.144 472.886 617.379 473.143 618.478 473.657C619.577 474.171 620.484 474.983 621.2 476.092C621.845 477.07 622.263 478.204 622.455 479.494C622.566 480.25 622.611 481.339 622.591 482.76H611.31C611.371 484.413 611.89 485.573 612.868 486.238C613.463 486.651 614.178 486.858 615.015 486.858C615.902 486.858 616.623 486.606 617.177 486.102C617.48 485.83 617.747 485.452 617.979 484.968H622.379C622.268 485.946 621.759 486.938 620.852 487.947C619.441 489.549 617.465 490.351 614.924 490.351C612.828 490.351 610.978 489.675 609.375 488.325C607.772 486.974 606.971 484.776 606.971 481.732C606.971 478.879 607.692 476.692 609.133 475.169C610.585 473.647 612.465 472.886 614.773 472.886ZM634.461 472.931C634.541 472.931 634.607 472.936 634.657 472.947C634.718 472.947 634.844 472.952 635.035 472.962V477.377C634.763 477.347 634.521 477.327 634.309 477.317C634.098 477.306 633.926 477.301 633.795 477.301C632.061 477.301 630.897 477.866 630.302 478.995C629.97 479.63 629.803 480.608 629.803 481.928V489.806H625.464V473.325H629.577V476.198C630.242 475.099 630.822 474.348 631.316 473.945C632.122 473.269 633.17 472.931 634.461 472.931ZM640.932 484.544C641.023 485.31 641.22 485.855 641.522 486.177C642.056 486.752 643.044 487.039 644.486 487.039C645.333 487.039 646.003 486.913 646.497 486.661C647.001 486.409 647.253 486.031 647.253 485.527C647.253 485.043 647.051 484.675 646.648 484.423C646.245 484.171 644.748 483.738 642.157 483.123C640.292 482.659 638.977 482.08 638.211 481.384C637.445 480.699 637.061 479.711 637.061 478.42C637.061 476.898 637.656 475.593 638.846 474.504C640.045 473.405 641.729 472.856 643.896 472.856C645.953 472.856 647.626 473.269 648.916 474.096C650.217 474.912 650.963 476.329 651.154 478.345H646.845C646.784 477.79 646.628 477.352 646.376 477.029C645.902 476.445 645.096 476.152 643.957 476.152C643.019 476.152 642.349 476.298 641.946 476.591C641.552 476.883 641.356 477.226 641.356 477.619C641.356 478.113 641.568 478.471 641.991 478.693C642.414 478.924 643.911 479.323 646.482 479.887C648.196 480.29 649.481 480.9 650.338 481.717C651.184 482.543 651.608 483.577 651.608 484.817C651.608 486.45 650.998 487.785 649.778 488.824C648.569 489.852 646.694 490.366 644.153 490.366C641.562 490.366 639.647 489.822 638.407 488.733C637.177 487.634 636.562 486.238 636.562 484.544H640.932Z" fill="white"/>
    <path d="M340.384 460.025V454.37L331.614 457.152L340.384 460.025ZM326.518 459.738V454.476L348.806 446.583V451.633L344.225 453.07V461.28L348.806 462.823V467.692L326.518 459.738ZM340.565 432.732C339.295 432.732 338.171 433.024 337.193 433.609C336.216 434.183 335.727 435.121 335.727 436.421C335.727 437.984 336.468 439.057 337.95 439.642C338.736 439.945 339.734 440.096 340.943 440.096C342.859 440.096 344.205 439.587 344.981 438.569C345.434 437.964 345.661 437.248 345.661 436.421C345.661 435.222 345.198 434.31 344.27 433.685C343.343 433.049 342.108 432.732 340.565 432.732ZM331.962 435.181C331.962 433.256 332.672 431.628 334.094 430.297C335.515 428.957 337.602 428.286 340.354 428.286C343.257 428.286 345.47 428.942 346.992 430.252C348.514 431.552 349.275 433.231 349.275 435.287C349.275 436.598 348.948 437.687 348.292 438.553C347.929 439.027 347.4 439.491 346.705 439.945H355.293V444.209H332.325V440.081H334.759C334.043 439.617 333.479 439.123 333.065 438.599C332.33 437.641 331.962 436.502 331.962 435.181ZM345.767 417.762C345.767 416.502 345.318 415.534 344.421 414.859C343.524 414.183 342.249 413.846 340.596 413.846C338.942 413.846 337.672 414.183 336.785 414.859C335.888 415.534 335.439 416.502 335.439 417.762C335.439 419.022 335.888 419.995 336.785 420.68C337.672 421.356 338.942 421.694 340.596 421.694C342.249 421.694 343.524 421.356 344.421 420.68C345.318 419.995 345.767 419.022 345.767 417.762ZM340.596 409.325C343.015 409.325 345.087 410.02 346.81 411.411C348.524 412.802 349.381 414.914 349.381 417.747C349.381 420.58 348.524 422.692 346.81 424.083C345.087 425.474 343.015 426.169 340.596 426.169C338.217 426.169 336.155 425.474 334.411 424.083C332.667 422.692 331.795 420.58 331.795 417.747C331.795 414.914 332.667 412.802 334.411 411.411C336.155 410.02 338.217 409.325 340.596 409.325ZM348.806 401.825V406.134H326.518V401.825H348.806ZM348.806 393.206V397.515H326.518V393.206H348.806ZM345.767 381.593C345.767 380.333 345.318 379.365 344.421 378.69C343.524 378.014 342.249 377.676 340.596 377.676C338.942 377.676 337.672 378.014 336.785 378.69C335.888 379.365 335.439 380.333 335.439 381.593C335.439 382.853 335.888 383.826 336.785 384.511C337.672 385.187 338.942 385.524 340.596 385.524C342.249 385.524 343.524 385.187 344.421 384.511C345.318 383.826 345.767 382.853 345.767 381.593ZM340.596 373.155C343.015 373.155 345.087 373.851 346.81 375.242C348.524 376.633 349.381 378.745 349.381 381.578C349.381 384.41 348.524 386.522 346.81 387.913C345.087 389.304 343.015 390 340.596 390C338.217 390 336.155 389.304 334.411 387.913C332.667 386.522 331.795 384.41 331.795 381.578C331.795 378.745 332.667 376.633 334.411 375.242C336.155 373.851 338.217 373.155 340.596 373.155ZM338.237 351.593C337.622 351.673 337.067 351.88 336.574 352.213C335.908 352.697 335.576 353.448 335.576 354.466C335.576 355.917 336.296 356.91 337.738 357.445C338.504 357.727 339.522 357.868 340.792 357.868C342.002 357.868 342.975 357.727 343.711 357.445C345.082 356.93 345.767 355.963 345.767 354.541C345.767 353.533 345.495 352.818 344.951 352.394C344.406 351.971 343.701 351.714 342.834 351.623V347.223C344.144 347.324 345.384 347.797 346.553 348.644C348.438 349.995 349.381 351.996 349.381 354.647C349.381 357.298 348.595 359.249 347.022 360.499C345.45 361.749 343.408 362.374 340.898 362.374C338.065 362.374 335.863 361.683 334.29 360.302C332.718 358.921 331.931 357.016 331.931 354.587C331.931 352.52 332.395 350.832 333.323 349.521C334.25 348.201 335.888 347.419 338.237 347.177V351.593ZM348.806 339.798V344.108H326.518V339.798H348.806ZM330.359 331.149V335.519H326.382V331.149H330.359ZM332.325 335.519V331.149H348.806V335.519H332.325ZM335.439 320.459C335.439 321.457 335.752 322.233 336.377 322.787C337.002 323.332 337.849 323.674 338.917 323.816V317.117C337.778 317.188 336.916 317.535 336.332 318.16C335.737 318.775 335.439 319.541 335.439 320.459ZM331.886 320.459C331.886 319.088 332.143 317.853 332.657 316.754C333.171 315.655 333.983 314.748 335.092 314.032C336.07 313.387 337.204 312.969 338.494 312.777C339.25 312.666 340.339 312.621 341.76 312.641V323.921C343.413 323.861 344.573 323.342 345.238 322.364C345.651 321.769 345.858 321.053 345.858 320.217C345.858 319.33 345.606 318.609 345.102 318.054C344.83 317.752 344.452 317.485 343.968 317.253V312.853C344.946 312.964 345.938 313.473 346.947 314.38C348.549 315.791 349.351 317.767 349.351 320.307C349.351 322.404 348.675 324.254 347.325 325.857C345.974 327.46 343.776 328.261 340.732 328.261C337.879 328.261 335.691 327.54 334.169 326.099C332.647 324.647 331.886 322.767 331.886 320.459ZM331.931 300.59C331.931 298.886 332.38 297.495 333.277 296.416C334.164 295.328 335.641 294.783 337.708 294.783H348.806V299.199H338.781C337.914 299.199 337.249 299.315 336.785 299.546C335.938 299.97 335.515 300.776 335.515 301.966C335.515 303.427 336.135 304.43 337.375 304.975C338.03 305.257 338.867 305.398 339.885 305.398H348.806V309.693H332.355V305.534H334.759C333.912 304.98 333.302 304.456 332.929 303.962C332.264 303.075 331.931 301.951 331.931 300.59ZM335.545 292.485H332.476V290.187H327.879V285.922H332.476V283.246H335.545V285.922H344.255C344.93 285.922 345.354 285.837 345.525 285.665C345.686 285.494 345.767 284.97 345.767 284.093C345.767 283.962 345.767 283.826 345.767 283.685C345.757 283.533 345.747 283.387 345.737 283.246H348.958L349.033 285.287C349.104 287.324 348.751 288.715 347.975 289.461C347.481 289.945 346.72 290.187 345.691 290.187H335.545V292.485Z" fill="white"/>
    <path d="M340.04 669.811C340.04 665.92 341.084 662.921 343.17 660.814C344.985 658.98 347.293 658.062 350.096 658.062C353.846 658.062 356.588 659.292 358.322 661.752C359.279 663.133 359.793 664.519 359.864 665.91H355.207C354.904 664.842 354.516 664.035 354.042 663.491C353.196 662.523 351.94 662.039 350.277 662.039C348.584 662.039 347.248 662.725 346.27 664.096C345.292 665.457 344.803 667.387 344.803 669.887C344.803 672.387 345.317 674.262 346.346 675.512C347.384 676.752 348.7 677.372 350.292 677.372C351.925 677.372 353.17 676.838 354.027 675.769C354.501 675.195 354.894 674.333 355.207 673.183H359.818C359.415 675.613 358.382 677.589 356.719 679.111C355.065 680.633 352.943 681.394 350.353 681.394C347.147 681.394 344.627 680.366 342.792 678.309C340.958 676.243 340.04 673.41 340.04 669.811ZM367.439 680.774H363.13V658.486H367.439V680.774ZM376.089 662.327H371.719V658.35H376.089V662.327ZM371.719 664.292H376.089V680.774H371.719V664.292ZM386.779 667.407C385.781 667.407 385.005 667.72 384.451 668.345C383.906 668.97 383.563 669.817 383.422 670.885H390.121C390.05 669.746 389.703 668.884 389.078 668.299C388.463 667.705 387.697 667.407 386.779 667.407ZM386.779 663.854C388.15 663.854 389.385 664.111 390.484 664.625C391.583 665.139 392.49 665.951 393.206 667.059C393.851 668.037 394.269 669.171 394.461 670.462C394.572 671.218 394.617 672.306 394.597 673.728H383.316C383.377 675.381 383.896 676.54 384.874 677.206C385.469 677.619 386.184 677.826 387.021 677.826C387.908 677.826 388.629 677.574 389.183 677.07C389.486 676.797 389.753 676.419 389.985 675.935H394.385C394.274 676.913 393.765 677.906 392.858 678.914C391.447 680.517 389.471 681.319 386.93 681.319C384.834 681.319 382.984 680.643 381.381 679.292C379.778 677.942 378.977 675.744 378.977 672.7C378.977 669.847 379.698 667.659 381.139 666.137C382.591 664.615 384.471 663.854 386.779 663.854ZM406.648 663.899C408.352 663.899 409.743 664.348 410.822 665.245C411.91 666.132 412.455 667.609 412.455 669.675V680.774H408.039V670.749C408.039 669.882 407.923 669.217 407.691 668.753C407.268 667.906 406.462 667.483 405.272 667.483C403.81 667.483 402.807 668.103 402.263 669.343C401.981 669.998 401.84 670.835 401.84 671.853V680.774H397.545V664.323H401.704V666.727C402.258 665.88 402.782 665.27 403.276 664.897C404.163 664.232 405.287 663.899 406.648 663.899ZM414.753 667.513V664.444H417.051V659.847H421.315V664.444H423.992V667.513H421.315V676.223C421.315 676.898 421.401 677.322 421.573 677.493C421.744 677.654 422.268 677.735 423.145 677.735C423.276 677.735 423.412 677.735 423.553 677.735C423.705 677.725 423.851 677.715 423.992 677.705V680.925L421.951 681.001C419.914 681.072 418.523 680.719 417.777 679.943C417.293 679.449 417.051 678.687 417.051 677.659V667.513H414.753ZM441.819 672.352H447.475L444.692 663.582L441.819 672.352ZM442.107 658.486H447.369L455.262 680.774H450.212L448.775 676.193H440.564L439.022 680.774H434.153L442.107 658.486ZM469.113 672.533C469.113 671.263 468.82 670.139 468.236 669.161C467.661 668.183 466.724 667.695 465.423 667.695C463.861 667.695 462.787 668.435 462.203 669.917C461.9 670.704 461.749 671.702 461.749 672.911C461.749 674.827 462.258 676.172 463.276 676.949C463.881 677.402 464.597 677.629 465.423 677.629C466.623 677.629 467.535 677.165 468.16 676.238C468.795 675.31 469.113 674.076 469.113 672.533ZM466.663 663.929C468.589 663.929 470.217 664.64 471.547 666.061C472.888 667.483 473.558 669.57 473.558 672.322C473.558 675.225 472.903 677.437 471.593 678.96C470.292 680.482 468.614 681.243 466.557 681.243C465.247 681.243 464.158 680.915 463.291 680.26C462.817 679.897 462.354 679.368 461.9 678.672V687.261H457.636V664.292H461.764V666.727C462.228 666.011 462.722 665.447 463.246 665.033C464.204 664.297 465.343 663.929 466.663 663.929ZM488.044 672.533C488.044 671.263 487.752 670.139 487.167 669.161C486.593 668.183 485.655 667.695 484.355 667.695C482.792 667.695 481.719 668.435 481.134 669.917C480.832 670.704 480.68 671.702 480.68 672.911C480.68 674.827 481.189 676.172 482.208 676.949C482.812 677.402 483.528 677.629 484.355 677.629C485.554 677.629 486.467 677.165 487.092 676.238C487.727 675.31 488.044 674.076 488.044 672.533ZM485.595 663.929C487.52 663.929 489.148 664.64 490.479 666.061C491.819 667.483 492.49 669.57 492.49 672.322C492.49 675.225 491.835 677.437 490.524 678.96C489.224 680.482 487.545 681.243 485.489 681.243C484.178 681.243 483.09 680.915 482.223 680.26C481.749 679.897 481.285 679.368 480.832 678.672V687.261H476.567V664.292H480.695V666.727C481.159 666.011 481.653 665.447 482.177 665.033C483.135 664.297 484.274 663.929 485.595 663.929Z" fill="white"/>
    <path d="M885.04 676.157C886.885 676.157 888.347 675.477 889.425 674.116C890.514 672.755 891.058 670.82 891.058 668.309C891.058 665.809 890.514 663.879 889.425 662.518C888.347 661.147 886.885 660.462 885.04 660.462C883.196 660.462 881.724 661.142 880.625 662.503C879.526 663.864 878.977 665.799 878.977 668.309C878.977 670.82 879.526 672.755 880.625 674.116C881.724 675.477 883.196 676.157 885.04 676.157ZM895.716 668.309C895.716 672.311 894.592 675.376 892.344 677.503C890.66 679.237 888.226 680.104 885.04 680.104C881.855 680.104 879.42 679.237 877.737 677.503C875.479 675.376 874.35 672.311 874.35 668.309C874.35 664.227 875.479 661.162 877.737 659.116C879.42 657.382 881.855 656.515 885.04 656.515C888.226 656.515 890.66 657.382 892.344 659.116C894.592 661.162 895.716 664.227 895.716 668.309ZM897.243 666.223V663.153H899.541V658.556H903.805V663.153H906.482V666.223H903.805V674.932C903.805 675.608 903.891 676.031 904.063 676.203C904.234 676.364 904.758 676.445 905.635 676.445C905.766 676.445 905.902 676.445 906.043 676.445C906.195 676.434 906.341 676.424 906.482 676.414V679.635L904.441 679.711C902.404 679.781 901.013 679.428 900.267 678.652C899.783 678.158 899.541 677.397 899.541 676.369V666.223H897.243ZM918.337 662.579C919.355 662.579 920.277 662.755 921.104 663.108C921.941 663.461 922.626 664 923.16 664.726C923.614 665.341 923.891 665.976 923.992 666.631C924.093 667.276 924.143 668.335 924.143 669.806V679.484H919.743V669.459C919.743 668.572 919.592 667.856 919.289 667.311C918.896 666.545 918.15 666.162 917.051 666.162C915.912 666.162 915.045 666.545 914.451 667.311C913.866 668.067 913.574 669.151 913.574 670.562V679.484H909.279V657.271H913.574V665.149C914.199 664.191 914.919 663.526 915.736 663.153C916.562 662.77 917.429 662.579 918.337 662.579ZM934.682 666.117C933.684 666.117 932.908 666.429 932.354 667.054C931.809 667.679 931.467 668.526 931.326 669.595H938.024C937.954 668.456 937.606 667.594 936.981 667.009C936.366 666.414 935.6 666.117 934.682 666.117ZM934.682 662.563C936.053 662.563 937.288 662.821 938.387 663.335C939.486 663.849 940.393 664.66 941.109 665.769C941.754 666.747 942.172 667.881 942.364 669.171C942.475 669.927 942.52 671.016 942.5 672.437H931.22C931.28 674.091 931.799 675.25 932.777 675.915C933.372 676.329 934.088 676.535 934.924 676.535C935.811 676.535 936.532 676.283 937.087 675.779C937.389 675.507 937.656 675.129 937.888 674.645H942.288C942.177 675.623 941.668 676.616 940.761 677.624C939.35 679.227 937.374 680.028 934.834 680.028C932.737 680.028 930.887 679.353 929.284 678.002C927.681 676.651 926.88 674.454 926.88 671.409C926.88 668.556 927.601 666.369 929.042 664.847C930.494 663.325 932.374 662.563 934.682 662.563ZM954.37 662.609C954.451 662.609 954.516 662.614 954.567 662.624C954.627 662.624 954.753 662.629 954.945 662.639V667.054C954.672 667.024 954.43 667.004 954.219 666.994C954.007 666.984 953.836 666.979 953.705 666.979C951.971 666.979 950.806 667.543 950.212 668.672C949.879 669.307 949.713 670.285 949.713 671.606V679.484H945.373V663.002H949.486V665.875C950.151 664.776 950.731 664.025 951.225 663.622C952.031 662.947 953.08 662.609 954.37 662.609ZM972.545 671.061H978.201L975.418 662.291L972.545 671.061ZM972.833 657.196H978.095L985.988 679.484H980.937L979.501 674.902H971.29L969.748 679.484H964.879L972.833 657.196ZM1001.38 664.287C1001.38 663.128 1001.07 662.301 1000.46 661.807C999.854 661.313 999.002 661.066 997.903 661.066H993.564V667.629H997.903C999.002 667.629 999.854 667.362 1000.46 666.828C1001.07 666.293 1001.38 665.447 1001.38 664.287ZM1005.99 664.257C1005.99 666.888 1005.33 668.748 1004 669.837C1002.67 670.925 1000.77 671.47 998.296 671.47H993.564V679.484H988.936V657.196H998.644C1000.88 657.196 1002.67 657.77 1004 658.919C1005.33 660.069 1005.99 661.848 1005.99 664.257ZM1013.75 679.484H1009.12V657.196H1013.75V679.484ZM1021.11 674.222C1021.2 674.988 1021.4 675.532 1021.7 675.855C1022.24 676.429 1023.23 676.717 1024.67 676.717C1025.51 676.717 1026.18 676.591 1026.68 676.339C1027.18 676.087 1027.43 675.709 1027.43 675.205C1027.43 674.721 1027.23 674.353 1026.83 674.101C1026.43 673.849 1024.93 673.415 1022.34 672.8C1020.47 672.337 1019.16 671.757 1018.39 671.061C1017.63 670.376 1017.24 669.388 1017.24 668.098C1017.24 666.576 1017.84 665.27 1019.03 664.181C1020.23 663.083 1021.91 662.533 1024.08 662.533C1026.13 662.533 1027.81 662.947 1029.1 663.773C1030.4 664.59 1031.14 666.006 1031.34 668.022H1027.03C1026.97 667.468 1026.81 667.029 1026.56 666.707C1026.08 666.122 1025.28 665.83 1024.14 665.83C1023.2 665.83 1022.53 665.976 1022.13 666.268C1021.73 666.56 1021.54 666.903 1021.54 667.296C1021.54 667.79 1021.75 668.148 1022.17 668.37C1022.6 668.602 1024.09 669 1026.66 669.564C1028.38 669.968 1029.66 670.578 1030.52 671.394C1031.37 672.221 1031.79 673.254 1031.79 674.494C1031.79 676.127 1031.18 677.463 1029.96 678.501C1028.75 679.529 1026.87 680.043 1024.33 680.043C1021.74 680.043 1019.83 679.499 1018.59 678.41C1017.36 677.311 1016.74 675.915 1016.74 674.222H1021.11Z" fill="white"/>
</svg>
