<svg width="1128" height="721" viewBox="0 0 1128 721" fill="none" xmlns="http://www.w3.org/2000/svg">
    <rect width="1127.13" height="720.433" fill="#191C1F"/>
    <rect x="50.3528" y="116.199" width="348.597" height="520.313" rx="18.0754" fill="#EB008D" stroke="white" stroke-width="5.16439"/>
    <rect x="468.669" y="116.199" width="315.028" height="520.313" rx="18.0754" fill="#0075EB" stroke="white" stroke-width="5.16439"/>
    <rect x="853.416" y="116.199" width="200.12" height="139.439" rx="18.0754" fill="#0075EB" stroke="white" stroke-width="5.16439"/>
    <rect x="853.416" y="305.99" width="200.12" height="139.439" rx="18.0754" fill="#0075EB" stroke="white" stroke-width="5.16439"/>
    <rect x="853.416" y="497.073" width="200.12" height="139.439" rx="18.0754" fill="#0075EB" stroke="white" stroke-width="5.16439"/>
    <rect x="82.6303" y="148.476" width="194.956" height="454.467" rx="18.0754" fill="#EB008D" stroke="white" stroke-width="5.16439"/>
    <rect x="528.059" y="148.476" width="194.956" height="184.627" rx="18.0754" fill="#0075EB" stroke="white" stroke-width="5.16439"/>
    <rect x="528.059" y="418.316" width="194.956" height="184.627" rx="18.0754" fill="#0075EB" stroke="white" stroke-width="5.16439"/>
    <rect x="302.117" y="148.476" width="64.5549" height="454.467" rx="18.0754" fill="#EB008D" stroke="white" stroke-width="5.16439"/>
    <path d="M466.087 384.747L427.354 362.385L427.354 407.11L466.087 384.747ZM401.532 388.621L431.227 388.621L431.227 380.874L401.532 380.874L401.532 388.621Z" fill="#EB008D"/>
    <path d="M850.834 185.918L812.101 163.556L812.101 208.281L850.834 185.918ZM786.279 189.792L815.974 189.792L815.974 182.045L786.279 182.045L786.279 189.792Z" fill="#0075EB"/>
    <path d="M850.834 384.747L812.101 362.385L812.101 407.11L850.834 384.747ZM786.279 388.621L815.974 388.621L815.974 380.874L786.279 380.874L786.279 388.621Z" fill="#0075EB"/>
    <path d="M850.834 570.666L812.101 548.303L812.101 593.028L850.834 570.666ZM786.279 574.539L815.974 574.539L815.974 566.792L786.279 566.792L786.279 574.539Z" fill="#0075EB"/>
    <path d="M158.427 384.827H164.085L161.302 376.051L158.427 384.827ZM158.714 370.952H163.98L171.877 393.254H166.824L165.387 388.67H157.171L155.628 393.254H150.756L158.714 370.952ZM185.737 385.008C185.737 383.737 185.444 382.613 184.859 381.634C184.284 380.656 183.346 380.167 182.045 380.167C180.481 380.167 179.407 380.908 178.822 382.391C178.52 383.178 178.368 384.176 178.368 385.387C178.368 387.303 178.878 388.65 179.896 389.426C180.502 389.88 181.218 390.107 182.045 390.107C183.245 390.107 184.158 389.643 184.783 388.715C185.419 387.787 185.737 386.552 185.737 385.008ZM183.286 376.399C185.212 376.399 186.841 377.11 188.173 378.533C189.514 379.955 190.185 382.043 190.185 384.796C190.185 387.701 189.529 389.915 188.218 391.439C186.917 392.962 185.237 393.723 183.18 393.723C181.868 393.723 180.779 393.395 179.912 392.74C179.437 392.377 178.973 391.847 178.52 391.151V399.745H174.253V376.762H178.383V379.198C178.847 378.482 179.342 377.917 179.866 377.504C180.824 376.767 181.964 376.399 183.286 376.399ZM204.679 385.008C204.679 383.737 204.387 382.613 203.802 381.634C203.227 380.656 202.289 380.167 200.988 380.167C199.424 380.167 198.35 380.908 197.765 382.391C197.462 383.178 197.311 384.176 197.311 385.387C197.311 387.303 197.82 388.65 198.839 389.426C199.444 389.88 200.161 390.107 200.988 390.107C202.188 390.107 203.101 389.643 203.726 388.715C204.362 387.787 204.679 386.552 204.679 385.008ZM202.228 376.399C204.155 376.399 205.784 377.11 207.115 378.533C208.457 379.955 209.128 382.043 209.128 384.796C209.128 387.701 208.472 389.915 207.161 391.439C205.86 392.962 204.18 393.723 202.122 393.723C200.811 393.723 199.722 393.395 198.854 392.74C198.38 392.377 197.916 391.847 197.462 391.151V399.745H193.196V376.762H197.326V379.198C197.79 378.482 198.284 377.917 198.809 377.504C199.767 376.767 200.907 376.399 202.228 376.399Z" fill="white"/>
    <path d="M147.871 670.2C147.871 666.306 148.915 663.306 151.003 661.198C152.819 659.362 155.129 658.444 157.933 658.444C161.685 658.444 164.428 659.674 166.163 662.136C167.122 663.517 167.636 664.904 167.707 666.296H163.047C162.744 665.227 162.356 664.42 161.882 663.876C161.034 662.907 159.779 662.423 158.114 662.423C156.42 662.423 155.083 663.109 154.105 664.481C153.126 665.842 152.637 667.774 152.637 670.276C152.637 672.777 153.152 674.653 154.18 675.904C155.219 677.145 156.536 677.765 158.129 677.765C159.763 677.765 161.009 677.23 161.866 676.161C162.341 675.586 162.734 674.724 163.047 673.574H167.661C167.258 676.005 166.224 677.982 164.56 679.505C162.905 681.028 160.782 681.79 158.19 681.79C154.982 681.79 152.461 680.761 150.625 678.703C148.789 676.635 147.871 673.801 147.871 670.2ZM175.287 681.169H170.975V658.867H175.287V681.169ZM183.941 662.711H179.569V658.731H183.941V662.711ZM179.569 664.677H183.941V681.169H179.569V664.677ZM194.638 667.794C193.64 667.794 192.863 668.107 192.308 668.732C191.763 669.358 191.421 670.205 191.279 671.274H197.982C197.911 670.134 197.563 669.272 196.938 668.687C196.323 668.092 195.556 667.794 194.638 667.794ZM194.638 664.239C196.01 664.239 197.246 664.496 198.345 665.01C199.444 665.525 200.352 666.337 201.068 667.446C201.714 668.425 202.133 669.559 202.324 670.85C202.435 671.607 202.481 672.696 202.46 674.119H191.173C191.234 675.773 191.753 676.933 192.732 677.598C193.327 678.012 194.043 678.219 194.88 678.219C195.768 678.219 196.489 677.967 197.044 677.462C197.346 677.19 197.614 676.812 197.846 676.328H202.249C202.138 677.306 201.628 678.3 200.72 679.308C199.308 680.912 197.331 681.714 194.789 681.714C192.691 681.714 190.841 681.038 189.237 679.686C187.633 678.335 186.831 676.136 186.831 673.09C186.831 670.235 187.552 668.046 188.995 666.523C190.447 665 192.328 664.239 194.638 664.239ZM214.519 664.284C216.224 664.284 217.616 664.733 218.695 665.631C219.784 666.518 220.329 667.996 220.329 670.064V681.169H215.911V671.138C215.911 670.271 215.795 669.605 215.563 669.141C215.139 668.294 214.332 667.87 213.142 667.87C211.68 667.87 210.676 668.49 210.131 669.731C209.849 670.387 209.708 671.224 209.708 672.242V681.169H205.411V664.708H209.572V667.113C210.126 666.266 210.651 665.656 211.145 665.283C212.033 664.617 213.157 664.284 214.519 664.284ZM222.629 667.9V664.829H224.929V660.229H229.195V664.829H231.873V667.9H229.195V676.615C229.195 677.291 229.281 677.714 229.452 677.886C229.624 678.047 230.148 678.128 231.026 678.128C231.157 678.128 231.293 678.128 231.434 678.128C231.586 678.118 231.732 678.108 231.873 678.098V681.32L229.831 681.396C227.793 681.467 226.401 681.114 225.655 680.337C225.171 679.843 224.929 679.081 224.929 678.052V667.9H222.629ZM249.712 672.742H255.37L252.586 663.966L249.712 672.742ZM249.999 658.867H255.264L263.162 681.169H258.109L256.671 676.585H248.456L246.913 681.169H242.041L249.999 658.867ZM277.021 672.923C277.021 671.652 276.729 670.528 276.144 669.549C275.569 668.571 274.631 668.082 273.33 668.082C271.766 668.082 270.692 668.823 270.107 670.306C269.804 671.093 269.653 672.091 269.653 673.302C269.653 675.218 270.162 676.565 271.181 677.341C271.786 677.795 272.503 678.022 273.33 678.022C274.53 678.022 275.443 677.558 276.068 676.63C276.704 675.702 277.021 674.467 277.021 672.923ZM274.57 664.314C276.497 664.314 278.126 665.025 279.457 666.448C280.799 667.87 281.47 669.958 281.47 672.711C281.47 675.616 280.814 677.83 279.503 679.354C278.201 680.877 276.522 681.638 274.464 681.638C273.153 681.638 272.064 681.31 271.196 680.655C270.722 680.292 270.258 679.762 269.804 679.066V687.66H265.538V664.677H269.668V667.113C270.132 666.397 270.626 665.832 271.151 665.419C272.109 664.682 273.249 664.314 274.57 664.314ZM295.964 672.923C295.964 671.652 295.672 670.528 295.087 669.549C294.512 668.571 293.574 668.082 292.272 668.082C290.709 668.082 289.635 668.823 289.05 670.306C288.747 671.093 288.596 672.091 288.596 673.302C288.596 675.218 289.105 676.565 290.124 677.341C290.729 677.795 291.445 678.022 292.272 678.022C293.473 678.022 294.386 677.558 295.011 676.63C295.646 675.702 295.964 674.467 295.964 672.923ZM293.513 664.314C295.44 664.314 297.069 665.025 298.4 666.448C299.742 667.87 300.412 669.958 300.412 672.711C300.412 675.616 299.757 677.83 298.446 679.354C297.144 680.877 295.465 681.638 293.407 681.638C292.096 681.638 291.007 681.31 290.139 680.655C289.665 680.292 289.201 679.762 288.747 679.066V687.66H284.48V664.677H288.611V667.113C289.075 666.397 289.569 665.832 290.094 665.419C291.052 664.682 292.192 664.314 293.513 664.314Z" fill="white"/>
    <path d="M521.17 665.827C520.817 664.304 519.955 663.24 518.583 662.635C517.816 662.302 516.964 662.136 516.026 662.136C514.23 662.136 512.753 662.816 511.593 664.178C510.443 665.53 509.868 667.567 509.868 670.291C509.868 673.034 510.493 674.976 511.744 676.116C512.995 677.256 514.417 677.825 516.011 677.825C517.574 677.825 518.855 677.377 519.854 676.479C520.852 675.571 521.468 674.386 521.7 672.923H516.54V669.201H525.83V681.169H522.744L522.275 678.385C521.377 679.444 520.57 680.191 519.854 680.625C518.623 681.381 517.11 681.759 515.315 681.759C512.359 681.759 509.939 680.735 508.052 678.688C506.085 676.63 505.102 673.816 505.102 670.245C505.102 666.634 506.096 663.739 508.083 661.561C510.07 659.382 512.697 658.293 515.965 658.293C518.8 658.293 521.074 659.014 522.789 660.456C524.514 661.888 525.502 663.679 525.755 665.827H521.17ZM538.903 664.284C538.983 664.284 539.049 664.289 539.099 664.299C539.16 664.299 539.286 664.304 539.477 664.314V668.732C539.205 668.702 538.963 668.682 538.751 668.672C538.539 668.662 538.368 668.657 538.237 668.657C536.502 668.657 535.337 669.221 534.742 670.351C534.409 670.987 534.242 671.965 534.242 673.286V681.169H529.9V664.677H534.016V667.552C534.681 666.453 535.261 665.701 535.755 665.298C536.562 664.622 537.611 664.284 538.903 664.284ZM551.113 673.15C550.84 673.322 550.563 673.463 550.28 673.574C550.008 673.675 549.63 673.771 549.146 673.861L548.177 674.043C547.269 674.204 546.619 674.401 546.225 674.633C545.56 675.026 545.227 675.637 545.227 676.464C545.227 677.2 545.429 677.735 545.832 678.068C546.246 678.39 546.745 678.552 547.33 678.552C548.258 678.552 549.11 678.279 549.887 677.735C550.674 677.19 551.082 676.196 551.113 674.754V673.15ZM548.495 671.138C549.292 671.037 549.862 670.911 550.205 670.76C550.82 670.497 551.128 670.089 551.128 669.534C551.128 668.858 550.891 668.394 550.417 668.142C549.953 667.88 549.267 667.749 548.359 667.749C547.34 667.749 546.619 668.001 546.195 668.505C545.893 668.879 545.691 669.383 545.59 670.018H541.429C541.52 668.576 541.924 667.391 542.64 666.463C543.779 665.01 545.736 664.284 548.51 664.284C550.316 664.284 551.919 664.642 553.321 665.358C554.724 666.074 555.425 667.426 555.425 669.413V676.978C555.425 677.503 555.435 678.138 555.455 678.885C555.485 679.449 555.571 679.833 555.712 680.034C555.853 680.236 556.065 680.403 556.348 680.534V681.169H551.657C551.526 680.836 551.435 680.524 551.385 680.231C551.334 679.939 551.294 679.606 551.264 679.233C550.669 679.878 549.983 680.428 549.206 680.882C548.278 681.416 547.229 681.684 546.059 681.684C544.566 681.684 543.331 681.26 542.352 680.413C541.384 679.555 540.9 678.345 540.9 676.781C540.9 674.754 541.681 673.286 543.245 672.379C544.102 671.884 545.363 671.531 547.027 671.32L548.495 671.138ZM570.63 672.923C570.63 671.652 570.338 670.528 569.753 669.549C569.178 668.571 568.24 668.082 566.939 668.082C565.375 668.082 564.301 668.823 563.716 670.306C563.413 671.093 563.262 672.091 563.262 673.302C563.262 675.218 563.771 676.565 564.79 677.341C565.395 677.795 566.111 678.022 566.939 678.022C568.139 678.022 569.052 677.558 569.677 676.63C570.313 675.702 570.63 674.467 570.63 672.923ZM568.179 664.314C570.106 664.314 571.735 665.025 573.066 666.448C574.408 667.87 575.079 669.958 575.079 672.711C575.079 675.616 574.423 677.83 573.112 679.354C571.81 680.877 570.131 681.638 568.073 681.638C566.762 681.638 565.673 681.31 564.805 680.655C564.331 680.292 563.867 679.762 563.413 679.066V687.66H559.147V664.677H563.277V667.113C563.741 666.397 564.235 665.832 564.76 665.419C565.718 664.682 566.858 664.314 568.179 664.314ZM587.304 664.254C588.322 664.254 589.245 664.43 590.072 664.783C590.91 665.136 591.595 665.676 592.13 666.402C592.584 667.018 592.861 667.653 592.962 668.309C593.063 668.954 593.114 670.013 593.114 671.486V681.169H588.711V671.138C588.711 670.25 588.559 669.534 588.257 668.989C587.863 668.223 587.117 667.84 586.018 667.84C584.878 667.84 584.01 668.223 583.415 668.989C582.83 669.746 582.538 670.83 582.538 672.242V681.169H578.241V658.943H582.538V666.826C583.163 665.868 583.884 665.202 584.701 664.829C585.528 664.445 586.396 664.254 587.304 664.254ZM607.321 677.841C607.855 677.841 608.37 677.775 608.864 677.644C609.136 677.573 609.484 677.447 609.908 677.266L607.654 675.117L610.059 672.606L612.314 674.754C612.667 674.028 612.914 673.392 613.055 672.848C613.277 672.031 613.388 671.077 613.388 669.988C613.388 667.487 612.873 665.555 611.845 664.193C610.826 662.821 609.333 662.136 607.366 662.136C605.52 662.136 604.048 662.791 602.948 664.102C601.849 665.414 601.299 667.376 601.299 669.988C601.299 673.044 602.086 675.233 603.659 676.555C604.678 677.412 605.898 677.841 607.321 677.841ZM618.048 669.655C618.048 671.642 617.806 673.307 617.322 674.648C616.928 675.929 616.348 676.993 615.582 677.841L618.154 680.246L615.718 682.788L613.025 680.246C612.208 680.741 611.502 681.088 610.906 681.29C609.908 681.623 608.713 681.79 607.321 681.79C604.416 681.79 602.015 680.922 600.119 679.187C597.819 677.099 596.669 674.033 596.669 669.988C596.669 665.913 597.849 662.832 600.21 660.744C602.136 659.039 604.532 658.187 607.396 658.187C610.281 658.187 612.702 659.089 614.659 660.895C616.918 662.983 618.048 665.903 618.048 669.655ZM621.619 658.867H626.279V677.16H637.324V681.169H621.619V658.867ZM652.56 674.285C652.701 675.304 652.978 676.065 653.392 676.57C654.148 677.488 655.444 677.946 657.28 677.946C658.38 677.946 659.272 677.825 659.958 677.583C661.259 677.119 661.91 676.257 661.91 674.996C661.91 674.26 661.587 673.69 660.942 673.286C660.296 672.893 659.282 672.545 657.9 672.242L655.54 671.713C653.22 671.188 651.616 670.618 650.729 670.003C649.226 668.974 648.474 667.366 648.474 665.177C648.474 663.18 649.201 661.52 650.653 660.199C652.106 658.878 654.239 658.217 657.053 658.217C659.403 658.217 661.406 658.842 663.06 660.093C664.724 661.334 665.597 663.139 665.677 665.51H661.199C661.118 664.168 660.533 663.215 659.444 662.65C658.717 662.277 657.815 662.09 656.735 662.09C655.535 662.09 654.577 662.332 653.861 662.816C653.145 663.301 652.786 663.976 652.786 664.844C652.786 665.641 653.14 666.236 653.846 666.629C654.3 666.891 655.268 667.199 656.751 667.552L660.594 668.475C662.278 668.879 663.549 669.418 664.406 670.094C665.738 671.143 666.404 672.661 666.404 674.648C666.404 676.686 665.622 678.38 664.058 679.732C662.505 681.073 660.306 681.744 657.462 681.744C654.557 681.744 652.272 681.083 650.608 679.762C648.943 678.431 648.111 676.605 648.111 674.285H652.56ZM676.011 667.794C675.013 667.794 674.236 668.107 673.681 668.732C673.136 669.358 672.793 670.205 672.652 671.274H679.355C679.284 670.134 678.936 669.272 678.311 668.687C677.696 668.092 676.929 667.794 676.011 667.794ZM676.011 664.239C677.383 664.239 678.619 664.496 679.718 665.01C680.817 665.525 681.725 666.337 682.441 667.446C683.087 668.425 683.506 669.559 683.697 670.85C683.808 671.607 683.854 672.696 683.833 674.119H672.546C672.607 675.773 673.126 676.933 674.105 677.598C674.7 678.012 675.416 678.219 676.253 678.219C677.141 678.219 677.862 677.967 678.417 677.462C678.719 677.19 678.987 676.812 679.219 676.328H683.622C683.511 677.306 683.001 678.3 682.093 679.308C680.681 680.912 678.704 681.714 676.162 681.714C674.064 681.714 672.213 681.038 670.61 679.686C669.006 678.335 668.204 676.136 668.204 673.09C668.204 670.235 668.925 668.046 670.368 666.523C671.82 665 673.701 664.239 676.011 664.239ZM695.71 664.284C695.791 664.284 695.857 664.289 695.907 664.299C695.968 664.299 696.094 664.304 696.285 664.314V668.732C696.013 668.702 695.771 668.682 695.559 668.672C695.347 668.662 695.176 668.657 695.045 668.657C693.31 668.657 692.145 669.221 691.55 670.351C691.217 670.987 691.05 671.965 691.05 673.286V681.169H686.708V664.677H690.823V667.552C691.489 666.453 692.069 665.701 692.563 665.298C693.37 664.622 694.419 664.284 695.71 664.284ZM708.995 664.677H713.624L707.678 681.169H703.124L697.208 664.677H702.05L705.484 676.842L708.995 664.677ZM722.581 667.794C721.583 667.794 720.806 668.107 720.251 668.732C719.707 669.358 719.364 670.205 719.223 671.274H725.925C725.855 670.134 725.507 669.272 724.881 668.687C724.266 668.092 723.499 667.794 722.581 667.794ZM722.581 664.239C723.953 664.239 725.189 664.496 726.288 665.01C727.388 665.525 728.296 666.337 729.012 667.446C729.657 668.425 730.076 669.559 730.268 670.85C730.378 671.607 730.424 672.696 730.404 674.119H719.117C719.177 675.773 719.697 676.933 720.675 677.598C721.27 678.012 721.986 678.219 722.824 678.219C723.711 678.219 724.432 677.967 724.987 677.462C725.29 677.19 725.557 676.812 725.789 676.328H730.192C730.081 677.306 729.572 678.3 728.664 679.308C727.252 680.912 725.275 681.714 722.733 681.714C720.635 681.714 718.784 681.038 717.18 679.686C715.576 678.335 714.774 676.136 714.774 673.09C714.774 670.235 715.496 668.046 716.938 666.523C718.39 665 720.272 664.239 722.581 664.239ZM742.281 664.284C742.361 664.284 742.427 664.289 742.477 664.299C742.538 664.299 742.664 664.304 742.856 664.314V668.732C742.583 668.702 742.341 668.682 742.129 668.672C741.918 668.662 741.746 668.657 741.615 668.657C739.88 668.657 738.715 669.221 738.12 670.351C737.787 670.987 737.621 671.965 737.621 673.286V681.169H733.278V664.677H737.394V667.552C738.059 666.453 738.639 665.701 739.134 665.298C739.941 664.622 740.99 664.284 742.281 664.284Z" fill="white"/>
    <path d="M885.572 677.841C887.418 677.841 888.881 677.16 889.96 675.798C891.05 674.436 891.594 672.5 891.594 669.988C891.594 667.487 891.05 665.555 889.96 664.193C888.881 662.821 887.418 662.136 885.572 662.136C883.727 662.136 882.254 662.816 881.154 664.178C880.055 665.54 879.505 667.476 879.505 669.988C879.505 672.5 880.055 674.436 881.154 675.798C882.254 677.16 883.727 677.841 885.572 677.841ZM896.254 669.988C896.254 673.992 895.13 677.059 892.88 679.187C891.196 680.922 888.76 681.79 885.572 681.79C882.385 681.79 879.949 680.922 878.265 679.187C876.005 677.059 874.875 673.992 874.875 669.988C874.875 665.903 876.005 662.837 878.265 660.789C879.949 659.054 882.385 658.187 885.572 658.187C888.76 658.187 891.196 659.054 892.88 660.789C895.13 662.837 896.254 665.903 896.254 669.988ZM897.782 667.9V664.829H900.082V660.229H904.349V664.829H907.027V667.9H904.349V676.615C904.349 677.291 904.435 677.714 904.606 677.886C904.778 678.047 905.302 678.128 906.18 678.128C906.311 678.128 906.447 678.128 906.588 678.128C906.739 678.118 906.886 678.108 907.027 678.098V681.32L904.984 681.396C902.947 681.467 901.555 681.114 900.808 680.337C900.324 679.843 900.082 679.081 900.082 678.052V667.9H897.782ZM918.889 664.254C919.908 664.254 920.831 664.43 921.658 664.783C922.495 665.136 923.181 665.676 923.715 666.402C924.169 667.018 924.447 667.653 924.547 668.309C924.648 668.954 924.699 670.013 924.699 671.486V681.169H920.296V671.138C920.296 670.25 920.145 669.534 919.842 668.989C919.449 668.223 918.702 667.84 917.603 667.84C916.463 667.84 915.596 668.223 915 668.989C914.415 669.746 914.123 670.83 914.123 672.242V681.169H909.826V658.943H914.123V666.826C914.748 665.868 915.469 665.202 916.286 664.829C917.114 664.445 917.981 664.254 918.889 664.254ZM935.244 667.794C934.246 667.794 933.469 668.107 932.914 668.732C932.37 669.358 932.027 670.205 931.886 671.274H938.588C938.518 670.134 938.17 669.272 937.544 668.687C936.929 668.092 936.162 667.794 935.244 667.794ZM935.244 664.239C936.616 664.239 937.852 664.496 938.951 665.01C940.051 665.525 940.959 666.337 941.675 667.446C942.32 668.425 942.739 669.559 942.93 670.85C943.041 671.607 943.087 672.696 943.067 674.119H931.78C931.84 675.773 932.36 676.933 933.338 677.598C933.933 678.012 934.649 678.219 935.486 678.219C936.374 678.219 937.095 677.967 937.65 677.462C937.953 677.19 938.22 676.812 938.452 676.328H942.855C942.744 677.306 942.234 678.3 941.327 679.308C939.915 680.912 937.938 681.714 935.396 681.714C933.298 681.714 931.447 681.038 929.843 679.686C928.239 678.335 927.437 676.136 927.437 673.09C927.437 670.235 928.158 668.046 929.601 666.523C931.053 665 932.935 664.239 935.244 664.239ZM954.944 664.284C955.024 664.284 955.09 664.289 955.14 664.299C955.201 664.299 955.327 664.304 955.519 664.314V668.732C955.246 668.702 955.004 668.682 954.792 668.672C954.581 668.662 954.409 668.657 954.278 668.657C952.543 668.657 951.378 669.221 950.783 670.351C950.45 670.987 950.284 671.965 950.284 673.286V681.169H945.941V664.677H950.057V667.552C950.722 666.453 951.302 665.701 951.797 665.298C952.604 664.622 953.653 664.284 954.944 664.284ZM973.13 672.742H978.789L976.005 663.966L973.13 672.742ZM973.418 658.867H978.683L986.581 681.169H981.527L980.09 676.585H971.874L970.331 681.169H965.459L973.418 658.867ZM1001.98 665.963C1001.98 664.804 1001.68 663.976 1001.06 663.482C1000.45 662.988 999.603 662.741 998.503 662.741H994.161V669.307H998.503C999.603 669.307 1000.45 669.04 1001.06 668.505C1001.68 667.971 1001.98 667.123 1001.98 665.963ZM1006.6 665.933C1006.6 668.566 1005.93 670.427 1004.6 671.516C1003.27 672.606 1001.37 673.15 998.897 673.15H994.161V681.169H989.531V658.867H999.245C1001.48 658.867 1003.27 659.442 1004.6 660.592C1005.93 661.742 1006.6 663.522 1006.6 665.933ZM1014.36 681.169H1009.73V658.867H1014.36V681.169ZM1021.73 675.904C1021.82 676.671 1022.02 677.215 1022.32 677.538C1022.85 678.113 1023.84 678.4 1025.28 678.4C1026.13 678.4 1026.8 678.274 1027.3 678.022C1027.8 677.77 1028.05 677.392 1028.05 676.887C1028.05 676.403 1027.85 676.035 1027.45 675.783C1027.04 675.531 1025.55 675.097 1022.95 674.482C1021.09 674.018 1019.77 673.438 1019 672.742C1018.24 672.056 1017.85 671.067 1017.85 669.776C1017.85 668.253 1018.45 666.947 1019.64 665.858C1020.84 664.758 1022.52 664.208 1024.69 664.208C1026.75 664.208 1028.43 664.622 1029.72 665.449C1031.02 666.266 1031.76 667.683 1031.96 669.701H1027.64C1027.58 669.146 1027.43 668.707 1027.17 668.384C1026.7 667.799 1025.89 667.507 1024.75 667.507C1023.82 667.507 1023.14 667.653 1022.74 667.946C1022.35 668.238 1022.15 668.581 1022.15 668.974C1022.15 669.469 1022.36 669.827 1022.79 670.049C1023.21 670.281 1024.71 670.679 1027.28 671.244C1029 671.647 1030.28 672.258 1031.14 673.075C1031.99 673.902 1032.41 674.936 1032.41 676.176C1032.41 677.81 1031.8 679.147 1030.58 680.186C1029.37 681.215 1027.49 681.729 1024.95 681.729C1022.36 681.729 1020.44 681.184 1019.2 680.095C1017.97 678.996 1017.36 677.598 1017.36 675.904H1021.73Z" fill="white"/>
    <path d="M571.81 244.349C571.952 245.368 572.229 246.129 572.642 246.634C573.399 247.552 574.695 248.011 576.531 248.011C577.63 248.011 578.523 247.89 579.209 247.648C580.51 247.184 581.161 246.321 581.161 245.06C581.161 244.324 580.838 243.754 580.192 243.351C579.547 242.957 578.533 242.609 577.151 242.307L574.791 241.777C572.471 241.253 570.867 240.683 569.98 240.067C568.477 239.039 567.725 237.43 567.725 235.241C567.725 233.244 568.451 231.584 569.904 230.263C571.356 228.942 573.49 228.281 576.304 228.281C578.654 228.281 580.656 228.906 582.311 230.157C583.975 231.398 584.847 233.203 584.928 235.574H580.45C580.369 234.232 579.784 233.279 578.695 232.714C577.968 232.341 577.066 232.154 575.986 232.154C574.786 232.154 573.828 232.396 573.112 232.881C572.395 233.365 572.037 234.041 572.037 234.908C572.037 235.705 572.39 236.3 573.096 236.693C573.55 236.956 574.519 237.263 576.001 237.616L579.844 238.539C581.529 238.943 582.8 239.482 583.657 240.158C584.989 241.207 585.654 242.725 585.654 244.712C585.654 246.75 584.873 248.444 583.309 249.796C581.756 251.138 579.557 251.808 576.712 251.808C573.808 251.808 571.523 251.148 569.859 249.826C568.194 248.495 567.362 246.669 567.362 244.349H571.81ZM598.606 240.657C598.525 240.042 598.318 239.487 597.985 238.993C597.501 238.327 596.75 237.995 595.731 237.995C594.278 237.995 593.285 238.716 592.75 240.158C592.468 240.925 592.327 241.943 592.327 243.214C592.327 244.425 592.468 245.398 592.75 246.135C593.265 247.506 594.233 248.192 595.655 248.192C596.664 248.192 597.38 247.92 597.804 247.375C598.227 246.83 598.485 246.124 598.575 245.257H602.978C602.877 246.568 602.403 247.809 601.556 248.979C600.204 250.865 598.202 251.808 595.549 251.808C592.897 251.808 590.945 251.022 589.694 249.448C588.443 247.874 587.818 245.832 587.818 243.32C587.818 240.486 588.509 238.282 589.891 236.708C591.273 235.135 593.179 234.348 595.61 234.348C597.678 234.348 599.367 234.812 600.678 235.74C602 236.668 602.782 238.307 603.024 240.657H598.606ZM615.097 234.318C616.116 234.318 617.039 234.494 617.866 234.847C618.703 235.201 619.389 235.74 619.924 236.466C620.378 237.082 620.655 237.717 620.756 238.373C620.857 239.018 620.907 240.077 620.907 241.55V251.233H616.505V241.202C616.505 240.314 616.353 239.598 616.051 239.054C615.657 238.287 614.911 237.904 613.811 237.904C612.672 237.904 611.804 238.287 611.209 239.054C610.624 239.81 610.331 240.894 610.331 242.307V251.233H606.035V229.007H610.331V236.89C610.957 235.932 611.678 235.266 612.495 234.893C613.322 234.51 614.19 234.318 615.097 234.318ZM631.453 237.858C630.454 237.858 629.678 238.171 629.123 238.796C628.578 239.422 628.235 240.269 628.094 241.338H634.797C634.726 240.198 634.378 239.336 633.753 238.751C633.138 238.156 632.371 237.858 631.453 237.858ZM631.453 234.303C632.825 234.303 634.06 234.56 635.16 235.074C636.259 235.589 637.167 236.401 637.883 237.51C638.529 238.489 638.947 239.624 639.139 240.915C639.25 241.671 639.295 242.761 639.275 244.183H627.988C628.049 245.837 628.568 246.997 629.547 247.663C630.142 248.076 630.858 248.283 631.695 248.283C632.583 248.283 633.304 248.031 633.859 247.526C634.161 247.254 634.429 246.876 634.661 246.392H639.063C638.952 247.37 638.443 248.364 637.535 249.372C636.123 250.976 634.146 251.778 631.604 251.778C629.506 251.778 627.655 251.102 626.052 249.751C624.448 248.399 623.646 246.2 623.646 243.154C623.646 240.299 624.367 238.111 625.81 236.587C627.262 235.064 629.143 234.303 631.453 234.303ZM660.624 234.378C661.35 234.378 662.066 234.52 662.772 234.802C663.478 235.085 664.119 235.579 664.694 236.285C665.158 236.86 665.47 237.566 665.632 238.403C665.733 238.958 665.783 239.77 665.783 240.839L665.753 251.233H661.335V240.733C661.335 240.108 661.234 239.593 661.032 239.19C660.649 238.423 659.943 238.04 658.914 238.04C657.724 238.04 656.902 238.534 656.448 239.523C656.216 240.047 656.1 240.678 656.1 241.414V251.233H651.758V241.414C651.758 240.436 651.657 239.724 651.455 239.281C651.092 238.484 650.381 238.085 649.322 238.085C648.091 238.085 647.264 238.484 646.84 239.281C646.608 239.734 646.492 240.41 646.492 241.308V251.233H642.12V234.772H646.311V237.178C646.845 236.32 647.35 235.71 647.824 235.347C648.661 234.701 649.745 234.378 651.077 234.378C652.338 234.378 653.356 234.656 654.133 235.211C654.758 235.725 655.232 236.386 655.555 237.193C656.12 236.224 656.821 235.513 657.658 235.059C658.546 234.605 659.534 234.378 660.624 234.378ZM678.856 243.214C678.583 243.386 678.306 243.527 678.023 243.638C677.751 243.739 677.373 243.835 676.889 243.926L675.92 244.107C675.012 244.268 674.362 244.465 673.968 244.697C673.303 245.091 672.97 245.701 672.97 246.528C672.97 247.264 673.172 247.799 673.575 248.132C673.989 248.454 674.488 248.616 675.073 248.616C676.001 248.616 676.853 248.343 677.63 247.799C678.417 247.254 678.825 246.261 678.856 244.818V243.214ZM676.238 241.202C677.035 241.101 677.605 240.975 677.948 240.824C678.563 240.562 678.871 240.153 678.871 239.598C678.871 238.923 678.634 238.459 678.16 238.206C677.696 237.944 677.01 237.813 676.102 237.813C675.083 237.813 674.362 238.065 673.938 238.569C673.636 238.943 673.434 239.447 673.333 240.082H669.172C669.263 238.64 669.667 237.455 670.383 236.527C671.522 235.074 673.479 234.348 676.253 234.348C678.059 234.348 679.662 234.706 681.064 235.422C682.467 236.139 683.168 237.49 683.168 239.477V247.042C683.168 247.567 683.178 248.202 683.198 248.949C683.228 249.514 683.314 249.897 683.455 250.099C683.596 250.3 683.808 250.467 684.091 250.598V251.233H679.4C679.269 250.9 679.178 250.588 679.128 250.295C679.077 250.003 679.037 249.67 679.007 249.297C678.412 249.942 677.726 250.492 676.949 250.946C676.021 251.48 674.972 251.748 673.802 251.748C672.309 251.748 671.074 251.324 670.095 250.477C669.127 249.619 668.643 248.409 668.643 246.846C668.643 244.818 669.424 243.351 670.988 242.443C671.845 241.949 673.106 241.595 674.77 241.384L676.238 241.202Z" fill="white"/>
    <path d="M280.632 52.8593C280.162 50.8285 279.012 49.4096 277.183 48.6027C276.161 48.1589 275.024 47.937 273.773 47.937C271.38 47.937 269.409 48.8448 267.863 50.6604C266.329 52.4625 265.563 55.1792 265.563 58.8104C265.563 62.4686 266.397 65.0575 268.064 66.5772C269.732 68.0969 271.628 68.8568 273.753 68.8568C275.838 68.8568 277.546 68.2583 278.877 67.0614C280.209 65.851 281.029 64.2707 281.338 62.3206H274.459V57.358H286.846V73.3151H282.73L282.105 69.6032C280.908 71.0154 279.832 72.0106 278.877 72.5889C277.237 73.5976 275.219 74.1019 272.825 74.1019C268.885 74.1019 265.657 72.7368 263.142 70.0067C260.519 67.2631 259.208 63.5108 259.208 58.7499C259.208 53.9352 260.533 50.0754 263.182 47.1704C265.832 44.2654 269.335 42.8129 273.693 42.8129C277.472 42.8129 280.505 43.7745 282.791 45.6977C285.091 47.6075 286.409 49.9947 286.745 52.8593H280.632ZM304.276 50.8016C304.383 50.8016 304.471 50.8083 304.538 50.8218C304.619 50.8218 304.787 50.8285 305.042 50.8419V56.7326C304.679 56.6922 304.356 56.6653 304.074 56.6519C303.791 56.6384 303.563 56.6317 303.388 56.6317C301.075 56.6317 299.521 57.3849 298.728 58.8911C298.284 59.7384 298.062 61.043 298.062 62.8048V73.3151H292.272V51.3261H297.76V55.1591C298.647 53.6931 299.421 52.6912 300.08 52.1532C301.155 51.2521 302.554 50.8016 304.276 50.8016ZM320.556 62.6232C320.192 62.8518 319.823 63.0401 319.446 63.1881C319.083 63.3226 318.579 63.4503 317.933 63.5714L316.642 63.8134C315.432 64.0286 314.564 64.2909 314.04 64.6002C313.152 65.1247 312.708 65.9384 312.708 67.0412C312.708 68.023 312.977 68.7358 313.515 69.1796C314.066 69.6099 314.732 69.8251 315.512 69.8251C316.75 69.8251 317.886 69.462 318.922 68.7358C319.971 68.0095 320.515 66.6848 320.556 64.7616V62.6232ZM317.066 59.9402C318.128 59.8057 318.888 59.6376 319.345 59.4358C320.166 59.0861 320.576 58.5415 320.576 57.8018C320.576 56.9007 320.26 56.282 319.628 55.9458C319.009 55.5961 318.094 55.4213 316.884 55.4213C315.526 55.4213 314.564 55.7575 313.999 56.43C313.596 56.9276 313.327 57.6 313.192 58.4473H307.645C307.766 56.5241 308.304 54.9439 309.258 53.7066C310.778 51.7699 313.387 50.8016 317.086 50.8016C319.493 50.8016 321.631 51.279 323.501 52.2339C325.37 53.1888 326.305 54.9909 326.305 57.6404V67.7271C326.305 68.4264 326.318 69.2737 326.345 70.2689C326.386 71.0221 326.5 71.5331 326.688 71.8021C326.877 72.0711 327.159 72.293 327.536 72.4678V73.3151H321.282C321.107 72.8713 320.986 72.4544 320.919 72.0644C320.851 71.6744 320.798 71.2305 320.757 70.7329C319.964 71.5937 319.049 72.3266 318.014 72.9318C316.776 73.6446 315.378 74.001 313.818 74.001C311.827 74.001 310.18 73.4362 308.875 72.3065C307.584 71.1633 306.938 69.5494 306.938 67.4648C306.938 64.7616 307.981 62.8048 310.065 61.5944C311.209 60.9354 312.89 60.4647 315.109 60.1822L317.066 59.9402ZM346.579 62.3206C346.579 60.626 346.189 59.1265 345.409 57.8219C344.643 56.5174 343.392 55.8651 341.657 55.8651C339.572 55.8651 338.14 56.8536 337.36 58.8306C336.957 59.8796 336.755 61.2111 336.755 62.825C336.755 65.3802 337.434 67.1757 338.792 68.2113C339.599 68.8165 340.554 69.1191 341.657 69.1191C343.257 69.1191 344.474 68.5004 345.308 67.2631C346.156 66.0258 346.579 64.3783 346.579 62.3206ZM343.311 50.8419C345.88 50.8419 348.052 51.7901 349.827 53.6864C351.616 55.5827 352.51 58.3666 352.51 62.0382C352.51 65.9115 351.636 68.8635 349.888 70.8943C348.153 72.9251 345.914 73.9405 343.17 73.9405C341.422 73.9405 339.969 73.5034 338.812 72.6292C338.18 72.1451 337.562 71.439 336.957 70.511V81.9695H331.268V51.3261H336.775V54.574C337.394 53.6192 338.053 52.866 338.752 52.3146C340.03 51.3328 341.549 50.8419 343.311 50.8419ZM368.81 50.7613C370.169 50.7613 371.399 50.9966 372.502 51.4673C373.618 51.938 374.533 52.6576 375.246 53.6259C375.851 54.4463 376.221 55.2935 376.355 56.1677C376.49 57.0285 376.557 58.4406 376.557 60.4041V73.3151H370.686V59.9402C370.686 58.7566 370.485 57.8018 370.081 57.0755C369.557 56.0534 368.562 55.5423 367.096 55.5423C365.576 55.5423 364.419 56.0534 363.626 57.0755C362.846 58.0842 362.456 59.53 362.456 61.4128V73.3151H356.726V43.6804H362.456V54.1907C363.29 52.9131 364.251 52.0255 365.341 51.5278C366.443 51.0168 367.6 50.7613 368.81 50.7613ZM395.5 68.877C396.213 68.877 396.898 68.7896 397.557 68.6147C397.921 68.5206 398.385 68.3525 398.949 68.1104L395.944 65.2458L399.151 61.897L402.157 64.7616C402.628 63.7933 402.957 62.946 403.146 62.2197C403.441 61.1304 403.589 59.8595 403.589 58.407C403.589 55.0716 402.903 52.4962 401.532 50.6806C400.173 48.8515 398.183 47.937 395.56 47.937C393.099 47.937 391.136 48.8112 389.67 50.5595C388.204 52.3079 387.471 54.9237 387.471 58.407C387.471 62.482 388.52 65.4004 390.618 67.1622C391.976 68.3054 393.603 68.877 395.5 68.877ZM409.803 57.9632C409.803 60.6126 409.48 62.8317 408.834 64.6204C408.31 66.3284 407.537 67.7473 406.514 68.877L409.944 72.0845L406.696 75.4737L403.105 72.0845C402.016 72.7435 401.074 73.2075 400.281 73.4765C398.949 73.9203 397.356 74.1422 395.5 74.1422C391.626 74.1422 388.426 72.9856 385.897 70.6724C382.831 67.8885 381.298 63.8 381.298 58.407C381.298 52.9736 382.871 48.8649 386.018 46.081C388.587 43.8081 391.781 42.6717 395.601 42.6717C399.447 42.6717 402.675 43.8754 405.284 46.2828C408.296 49.0667 409.803 52.9602 409.803 57.9632ZM414.564 43.5795H420.777V67.9692H435.504V73.3151H414.564V43.5795ZM448.596 55.623V51.5278H451.663V45.3951H457.351V51.5278H460.922V55.623H457.351V67.2429C457.351 68.144 457.466 68.7089 457.694 68.9375C457.923 69.1527 458.622 69.2603 459.792 69.2603C459.967 69.2603 460.149 69.2603 460.337 69.2603C460.539 69.2468 460.734 69.2334 460.922 69.2199V73.5169L458.199 73.6177C455.482 73.7119 453.626 73.2412 452.631 72.2056C451.985 71.5466 451.663 70.5312 451.663 69.1594V55.623H448.596ZM476.557 50.8016C476.664 50.8016 476.752 50.8083 476.819 50.8218C476.9 50.8218 477.068 50.8285 477.323 50.8419V56.7326C476.96 56.6922 476.637 56.6653 476.355 56.6519C476.072 56.6384 475.844 56.6317 475.669 56.6317C473.356 56.6317 471.802 57.3849 471.009 58.8911C470.565 59.7384 470.343 61.043 470.343 62.8048V73.3151H464.553V51.3261H470.041V55.1591C470.928 53.6931 471.701 52.6912 472.36 52.1532C473.436 51.2521 474.835 50.8016 476.557 50.8016ZM492.836 62.6232C492.473 62.8518 492.104 63.0401 491.727 63.1881C491.364 63.3226 490.859 63.4503 490.214 63.5714L488.923 63.8134C487.712 64.0286 486.845 64.2909 486.32 64.6002C485.433 65.1247 484.989 65.9384 484.989 67.0412C484.989 68.023 485.258 68.7358 485.796 69.1796C486.347 69.6099 487.013 69.8251 487.793 69.8251C489.03 69.8251 490.167 69.462 491.202 68.7358C492.251 68.0095 492.796 66.6848 492.836 64.7616V62.6232ZM489.346 59.9402C490.409 59.8057 491.169 59.6376 491.626 59.4358C492.446 59.0861 492.857 58.5415 492.857 57.8018C492.857 56.9007 492.541 56.282 491.909 55.9458C491.29 55.5961 490.375 55.4213 489.165 55.4213C487.807 55.4213 486.845 55.7575 486.28 56.43C485.877 56.9276 485.608 57.6 485.473 58.4473H479.926C480.047 56.5241 480.585 54.9439 481.539 53.7066C483.059 51.7699 485.668 50.8016 489.367 50.8016C491.774 50.8016 493.912 51.279 495.782 52.2339C497.651 53.1888 498.586 54.9909 498.586 57.6404V67.7271C498.586 68.4264 498.599 69.2737 498.626 70.2689C498.667 71.0221 498.781 71.5331 498.969 71.8021C499.157 72.0711 499.44 72.293 499.816 72.4678V73.3151H493.563C493.388 72.8713 493.267 72.4544 493.2 72.0644C493.132 71.6744 493.079 71.2305 493.038 70.7329C492.245 71.5937 491.33 72.3266 490.295 72.9318C489.057 73.6446 487.659 74.001 486.099 74.001C484.108 74.001 482.461 73.4362 481.156 72.3065C479.865 71.1633 479.219 69.5494 479.219 67.4648C479.219 64.7616 480.262 62.8048 482.346 61.5944C483.489 60.9354 485.171 60.4647 487.39 60.1822L489.346 59.9402ZM511.82 50.8016C513.151 50.8016 514.335 51.0975 515.37 51.6892C516.406 52.2675 517.246 53.0745 517.892 54.11V43.6199H523.722V73.3151H518.134V70.2689C517.314 71.5735 516.379 72.5216 515.33 73.1134C514.281 73.7051 512.976 74.001 511.416 74.001C508.847 74.001 506.682 72.9655 504.92 70.8943C503.172 68.8097 502.298 66.1401 502.298 62.8855C502.298 59.1332 503.159 56.1812 504.88 54.0293C506.615 51.8775 508.928 50.8016 511.82 50.8016ZM513.07 69.1594C514.698 69.1594 515.935 68.5542 516.782 67.3438C517.63 66.1334 518.053 64.5666 518.053 62.6434C518.053 59.9536 517.374 58.0304 516.016 56.8738C515.182 56.1744 514.214 55.8248 513.111 55.8248C511.43 55.8248 510.192 56.4636 509.399 57.7413C508.619 59.0055 508.229 60.579 508.229 62.4618C508.229 64.4926 508.626 66.1199 509.419 67.3438C510.226 68.5542 511.443 69.1594 513.07 69.1594ZM537.077 50.8016C538.408 50.8016 539.592 51.0975 540.627 51.6892C541.663 52.2675 542.503 53.0745 543.149 54.11V43.6199H548.979V73.3151H543.391V70.2689C542.571 71.5735 541.636 72.5216 540.587 73.1134C539.538 73.7051 538.233 74.001 536.673 74.001C534.105 74.001 531.939 72.9655 530.177 70.8943C528.429 68.8097 527.555 66.1401 527.555 62.8855C527.555 59.1332 528.416 56.1812 530.137 54.0293C531.872 51.8775 534.185 50.8016 537.077 50.8016ZM538.328 69.1594C539.955 69.1594 541.192 68.5542 542.039 67.3438C542.887 66.1334 543.31 64.5666 543.31 62.6434C543.31 59.9536 542.631 58.0304 541.273 56.8738C540.439 56.1744 539.471 55.8248 538.368 55.8248C536.687 55.8248 535.449 56.4636 534.656 57.7413C533.876 59.0055 533.486 60.579 533.486 62.4618C533.486 64.4926 533.883 66.1199 534.676 67.3438C535.483 68.5542 536.7 69.1594 538.328 69.1594ZM560.135 48.7036H554.305V43.398H560.135V48.7036ZM554.305 51.3261H560.135V73.3151H554.305V51.3261ZM563.464 55.623V51.5278H566.53V45.3951H572.219V51.5278H575.79V55.623H572.219V67.2429C572.219 68.144 572.333 68.7089 572.562 68.9375C572.79 69.1527 573.49 69.2603 574.66 69.2603C574.835 69.2603 575.016 69.2603 575.205 69.2603C575.406 69.2468 575.601 69.2334 575.79 69.2199V73.5169L573.066 73.6177C570.349 73.7119 568.494 73.2412 567.498 72.2056C566.853 71.5466 566.53 70.5312 566.53 69.1594V55.623H563.464ZM585.392 48.7036H579.562V43.398H585.392V48.7036ZM579.562 51.3261H585.392V73.3151H579.562V51.3261ZM600.845 69.2603C602.526 69.2603 603.817 68.6618 604.718 67.4648C605.619 66.2679 606.07 64.5666 606.07 62.361C606.07 60.1553 605.619 58.4608 604.718 57.2773C603.817 56.0803 602.526 55.4818 600.845 55.4818C599.164 55.4818 597.866 56.0803 596.951 57.2773C596.05 58.4608 595.6 60.1553 595.6 62.361C595.6 64.5666 596.05 66.2679 596.951 67.4648C597.866 68.6618 599.164 69.2603 600.845 69.2603ZM612.102 62.361C612.102 65.5887 611.174 68.3525 609.318 70.6522C607.462 72.9386 604.644 74.0817 600.865 74.0817C597.086 74.0817 594.268 72.9386 592.412 70.6522C590.557 68.3525 589.629 65.5887 589.629 62.361C589.629 59.187 590.557 56.4367 592.412 54.11C594.268 51.7834 597.086 50.62 600.865 50.62C604.644 50.62 607.462 51.7834 609.318 54.11C611.174 56.4367 612.102 59.187 612.102 62.361ZM628.422 50.8016C630.695 50.8016 632.551 51.4001 633.99 52.597C635.442 53.7805 636.169 55.7508 636.169 58.5078V73.3151H630.278V59.9402C630.278 58.7835 630.123 57.8959 629.814 57.2773C629.249 56.1476 628.173 55.5827 626.586 55.5827C624.636 55.5827 623.298 56.4098 622.572 58.064C622.195 58.9382 622.007 60.0545 622.007 61.4128V73.3151H616.278V51.3665H621.825V54.574C622.565 53.4443 623.264 52.6307 623.923 52.133C625.107 51.2454 626.606 50.8016 628.422 50.8016ZM653.619 62.6232C653.255 62.8518 652.886 63.0401 652.509 63.1881C652.146 63.3226 651.642 63.4503 650.996 63.5714L649.705 63.8134C648.495 64.0286 647.627 64.2909 647.103 64.6002C646.215 65.1247 645.771 65.9384 645.771 67.0412C645.771 68.023 646.04 68.7358 646.578 69.1796C647.129 69.6099 647.795 69.8251 648.575 69.8251C649.813 69.8251 650.949 69.462 651.985 68.7358C653.034 68.0095 653.578 66.6848 653.619 64.7616V62.6232ZM650.129 59.9402C651.191 59.8057 651.951 59.6376 652.408 59.4358C653.229 59.0861 653.639 58.5415 653.639 57.8018C653.639 56.9007 653.323 56.282 652.691 55.9458C652.072 55.5961 651.157 55.4213 649.947 55.4213C648.589 55.4213 647.627 55.7575 647.062 56.43C646.659 56.9276 646.39 57.6 646.255 58.4473H640.708C640.829 56.5241 641.367 54.9439 642.321 53.7066C643.841 51.7699 646.45 50.8016 650.149 50.8016C652.556 50.8016 654.695 51.279 656.564 52.2339C658.433 53.1888 659.368 54.9909 659.368 57.6404V67.7271C659.368 68.4264 659.381 69.2737 659.408 70.2689C659.449 71.0221 659.563 71.5331 659.751 71.8021C659.94 72.0711 660.222 72.293 660.599 72.4678V73.3151H654.345C654.17 72.8713 654.049 72.4544 653.982 72.0644C653.914 71.6744 653.861 71.2305 653.82 70.7329C653.027 71.5937 652.112 72.3266 651.077 72.9318C649.839 73.6446 648.441 74.001 646.881 74.001C644.89 74.001 643.243 73.4362 641.938 72.3065C640.647 71.1633 640.002 69.5494 640.002 67.4648C640.002 64.7616 641.044 62.8048 643.128 61.5944C644.272 60.9354 645.953 60.4647 648.172 60.1822L650.129 59.9402ZM670.363 73.3151H664.613V43.5795H670.363V73.3151ZM699.614 62.6232C699.251 62.8518 698.881 63.0401 698.504 63.1881C698.141 63.3226 697.637 63.4503 696.991 63.5714L695.7 63.8134C694.49 64.0286 693.622 64.2909 693.098 64.6002C692.21 65.1247 691.767 65.9384 691.767 67.0412C691.767 68.023 692.036 68.7358 692.573 69.1796C693.125 69.6099 693.791 69.8251 694.571 69.8251C695.808 69.8251 696.944 69.462 697.98 68.7358C699.029 68.0095 699.574 66.6848 699.614 64.7616V62.6232ZM696.124 59.9402C697.186 59.8057 697.946 59.6376 698.404 59.4358C699.224 59.0861 699.634 58.5415 699.634 57.8018C699.634 56.9007 699.318 56.282 698.686 55.9458C698.067 55.5961 697.153 55.4213 695.942 55.4213C694.584 55.4213 693.622 55.7575 693.058 56.43C692.654 56.9276 692.385 57.6 692.251 58.4473H686.703C686.824 56.5241 687.362 54.9439 688.317 53.7066C689.837 51.7699 692.446 50.8016 696.144 50.8016C698.552 50.8016 700.69 51.279 702.559 52.2339C704.429 53.1888 705.363 54.9909 705.363 57.6404V67.7271C705.363 68.4264 705.377 69.2737 705.404 70.2689C705.444 71.0221 705.558 71.5331 705.747 71.8021C705.935 72.0711 706.217 72.293 706.594 72.4678V73.3151H700.34C700.165 72.8713 700.044 72.4544 699.977 72.0644C699.91 71.6744 699.856 71.2305 699.816 70.7329C699.022 71.5937 698.108 72.3266 697.072 72.9318C695.835 73.6446 694.436 74.001 692.876 74.001C690.886 74.001 689.238 73.4362 687.934 72.3065C686.642 71.1633 685.997 69.5494 685.997 67.4648C685.997 64.7616 687.039 62.8048 689.124 61.5944C690.267 60.9354 691.948 60.4647 694.167 60.1822L696.124 59.9402ZM725.638 62.3206C725.638 60.626 725.248 59.1265 724.468 57.8219C723.701 56.5174 722.45 55.8651 720.715 55.8651C718.631 55.8651 717.198 56.8536 716.418 58.8306C716.015 59.8796 715.813 61.2111 715.813 62.825C715.813 65.3802 716.492 67.1757 717.851 68.2113C718.658 68.8165 719.613 69.1191 720.715 69.1191C722.316 69.1191 723.533 68.5004 724.367 67.2631C725.214 66.0258 725.638 64.3783 725.638 62.3206ZM722.37 50.8419C724.938 50.8419 727.11 51.7901 728.886 53.6864C730.674 55.5827 731.569 58.3666 731.569 62.0382C731.569 65.9115 730.694 68.8635 728.946 70.8943C727.211 72.9251 724.972 73.9405 722.228 73.9405C720.48 73.9405 719.028 73.5034 717.871 72.6292C717.239 72.1451 716.62 71.439 716.015 70.511V81.9695H710.326V51.3261H715.833V54.574C716.452 53.6192 717.111 52.866 717.81 52.3146C719.088 51.3328 720.608 50.8419 722.37 50.8419ZM750.895 62.3206C750.895 60.626 750.505 59.1265 749.725 57.8219C748.958 56.5174 747.707 55.8651 745.972 55.8651C743.888 55.8651 742.456 56.8536 741.676 58.8306C741.272 59.8796 741.07 61.2111 741.07 62.825C741.07 65.3802 741.75 67.1757 743.108 68.2113C743.915 68.8165 744.87 69.1191 745.972 69.1191C747.573 69.1191 748.79 68.5004 749.624 67.2631C750.471 66.0258 750.895 64.3783 750.895 62.3206ZM747.627 50.8419C750.195 50.8419 752.367 51.7901 754.143 53.6864C755.931 55.5827 756.826 58.3666 756.826 62.0382C756.826 65.9115 755.952 68.8635 754.203 70.8943C752.468 72.9251 750.229 73.9405 747.485 73.9405C745.737 73.9405 744.285 73.5034 743.128 72.6292C742.496 72.1451 741.877 71.439 741.272 70.511V81.9695H735.583V51.3261H741.091V54.574C741.709 53.6192 742.368 52.866 743.068 52.3146C744.345 51.3328 745.865 50.8419 747.627 50.8419ZM772.944 50.8016C773.052 50.8016 773.139 50.8083 773.207 50.8218C773.287 50.8218 773.455 50.8285 773.711 50.8419V56.7326C773.348 56.6922 773.025 56.6653 772.743 56.6519C772.46 56.6384 772.232 56.6317 772.057 56.6317C769.743 56.6317 768.19 57.3849 767.397 58.8911C766.953 59.7384 766.731 61.043 766.731 62.8048V73.3151H760.941V51.3261H766.428V55.1591C767.316 53.6931 768.089 52.6912 768.748 52.1532C769.824 51.2521 771.223 50.8016 772.944 50.8016ZM786.965 69.2603C788.646 69.2603 789.937 68.6618 790.838 67.4648C791.739 66.2679 792.19 64.5666 792.19 62.361C792.19 60.1553 791.739 58.4608 790.838 57.2773C789.937 56.0803 788.646 55.4818 786.965 55.4818C785.284 55.4818 783.986 56.0803 783.071 57.2773C782.17 58.4608 781.72 60.1553 781.72 62.361C781.72 64.5666 782.17 66.2679 783.071 67.4648C783.986 68.6618 785.284 69.2603 786.965 69.2603ZM798.222 62.361C798.222 65.5887 797.294 68.3525 795.438 70.6522C793.582 72.9386 790.764 74.0817 786.985 74.0817C783.206 74.0817 780.388 72.9386 778.532 70.6522C776.676 68.3525 775.748 65.5887 775.748 62.361C775.748 59.187 776.676 56.4367 778.532 54.11C780.388 51.7834 783.206 50.62 786.985 50.62C790.764 50.62 793.582 51.7834 795.438 54.11C797.294 56.4367 798.222 59.187 798.222 62.361ZM814.481 62.6232C814.118 62.8518 813.748 63.0401 813.372 63.1881C813.009 63.3226 812.504 63.4503 811.859 63.5714L810.568 63.8134C809.357 64.0286 808.49 64.2909 807.965 64.6002C807.078 65.1247 806.634 65.9384 806.634 67.0412C806.634 68.023 806.903 68.7358 807.441 69.1796C807.992 69.6099 808.658 69.8251 809.438 69.8251C810.675 69.8251 811.812 69.462 812.847 68.7358C813.896 68.0095 814.441 66.6848 814.481 64.7616V62.6232ZM810.991 59.9402C812.054 59.8057 812.814 59.6376 813.271 59.4358C814.091 59.0861 814.502 58.5415 814.502 57.8018C814.502 56.9007 814.185 56.282 813.553 55.9458C812.935 55.5961 812.02 55.4213 810.81 55.4213C809.451 55.4213 808.49 55.7575 807.925 56.43C807.522 56.9276 807.253 57.6 807.118 58.4473H801.57C801.691 56.5241 802.229 54.9439 803.184 53.7066C804.704 51.7699 807.313 50.8016 811.012 50.8016C813.419 50.8016 815.557 51.279 817.427 52.2339C819.296 53.1888 820.231 54.9909 820.231 57.6404V67.7271C820.231 68.4264 820.244 69.2737 820.271 70.2689C820.311 71.0221 820.426 71.5331 820.614 71.8021C820.802 72.0711 821.085 72.293 821.461 72.4678V73.3151H815.208C815.033 72.8713 814.912 72.4544 814.844 72.0644C814.777 71.6744 814.723 71.2305 814.683 70.7329C813.89 71.5937 812.975 72.3266 811.94 72.9318C810.702 73.6446 809.304 74.001 807.743 74.001C805.753 74.001 804.105 73.4362 802.801 72.3065C801.51 71.1633 800.864 69.5494 800.864 67.4648C800.864 64.7616 801.907 62.8048 803.991 61.5944C805.134 60.9354 806.815 60.4647 809.035 60.1822L810.991 59.9402ZM838.488 59.2139C838.38 58.3935 838.104 57.6538 837.661 56.9948C837.015 56.1072 836.013 55.6634 834.655 55.6634C832.718 55.6634 831.393 56.625 830.681 58.5482C830.304 59.5703 830.116 60.9286 830.116 62.6232C830.116 64.2371 830.304 65.5349 830.681 66.5167C831.367 68.3457 832.658 69.2603 834.554 69.2603C835.899 69.2603 836.854 68.8971 837.419 68.1709C837.983 67.4447 838.326 66.5032 838.447 65.3466H844.318C844.183 67.095 843.551 68.7492 842.422 70.3093C840.619 72.8242 837.95 74.0817 834.413 74.0817C830.876 74.0817 828.273 73.0327 826.606 70.9347C824.938 68.8366 824.104 66.1132 824.104 62.7644C824.104 58.9853 825.025 56.0467 826.868 53.9486C828.71 51.8506 831.252 50.8016 834.493 50.8016C837.25 50.8016 839.503 51.4202 841.252 52.6576C843.013 53.8949 844.056 56.0803 844.378 59.2139H838.488ZM860.477 50.7613C861.835 50.7613 863.066 50.9966 864.169 51.4673C865.285 51.938 866.199 52.6576 866.912 53.6259C867.517 54.4463 867.887 55.2935 868.022 56.1677C868.156 57.0285 868.223 58.4406 868.223 60.4041V73.3151H862.353V59.9402C862.353 58.7566 862.151 57.8018 861.748 57.0755C861.223 56.0534 860.228 55.5423 858.762 55.5423C857.242 55.5423 856.086 56.0534 855.292 57.0755C854.512 58.0842 854.122 59.53 854.122 61.4128V73.3151H848.393V43.6804H854.122V54.1907C854.956 52.9131 855.918 52.0255 857.007 51.5278C858.11 51.0168 859.266 50.7613 860.477 50.7613Z" fill="white"/>
    <path d="M923.156 185.998H928.814L926.03 177.222L923.156 185.998ZM923.443 172.123H928.708L936.606 194.425H931.553L930.115 189.841H921.9L920.357 194.425H915.485L923.443 172.123ZM952.009 179.219C952.009 178.059 951.701 177.232 951.086 176.738C950.481 176.244 949.628 175.997 948.529 175.997H944.186V182.563H948.529C949.628 182.563 950.481 182.296 951.086 181.761C951.701 181.227 952.009 180.379 952.009 179.219ZM956.623 179.189C956.623 181.822 955.958 183.683 954.626 184.772C953.295 185.861 951.393 186.406 948.922 186.406H944.186V194.425H939.557V172.123H949.27C951.509 172.123 953.295 172.698 954.626 173.848C955.958 174.998 956.623 176.778 956.623 179.189ZM964.385 194.425H959.755V172.123H964.385V194.425ZM977.155 179.295V176.36C978.517 176.299 979.47 176.208 980.014 176.087C980.882 175.896 981.588 175.512 982.133 174.937C982.506 174.544 982.788 174.02 982.98 173.364C983.091 172.971 983.146 172.678 983.146 172.486H986.732V194.425H982.314V179.295H977.155Z" fill="white"/>
    <path d="M923.156 377.08H928.814L926.03 368.305L923.156 377.08ZM923.443 363.206H928.708L936.606 385.508H931.553L930.115 380.923H921.9L920.357 385.508H915.485L923.443 363.206ZM952.009 370.302C952.009 369.142 951.701 368.315 951.086 367.821C950.481 367.326 949.628 367.079 948.529 367.079H944.186V373.646H948.529C949.628 373.646 950.481 373.378 951.086 372.844C951.701 372.309 952.009 371.462 952.009 370.302ZM956.623 370.272C956.623 372.904 955.958 374.765 954.626 375.855C953.295 376.944 951.393 377.489 948.922 377.489H944.186V385.508H939.557V363.206H949.27C951.509 363.206 953.295 363.781 954.626 364.931C955.958 366.081 956.623 367.861 956.623 370.272ZM964.385 385.508H959.755V363.206H964.385V385.508ZM975.975 385.508C976.015 383.934 976.353 382.497 976.988 381.196C977.604 379.733 979.056 378.185 981.346 376.551C983.333 375.128 984.619 374.11 985.204 373.494C986.102 372.536 986.551 371.487 986.551 370.347C986.551 369.419 986.293 368.648 985.779 368.032C985.265 367.417 984.528 367.109 983.57 367.109C982.259 367.109 981.366 367.599 980.892 368.577C980.62 369.142 980.458 370.04 980.408 371.27H976.217C976.287 369.404 976.625 367.896 977.23 366.746C978.38 364.557 980.423 363.463 983.358 363.463C985.678 363.463 987.524 364.109 988.896 365.4C990.268 366.681 990.953 368.38 990.953 370.499C990.953 372.123 990.469 373.565 989.501 374.826C988.865 375.663 987.822 376.596 986.369 377.625L984.644 378.85C983.565 379.617 982.824 380.172 982.42 380.515C982.027 380.858 981.694 381.256 981.421 381.71H990.999V385.508H975.975Z" fill="white"/>
    <path d="M923.156 568.163H928.814L926.03 559.387L923.156 568.163ZM923.443 554.288H928.708L936.606 576.59H931.553L930.115 572.006H921.9L920.357 576.59H915.485L923.443 554.288ZM952.009 561.384C952.009 560.224 951.701 559.397 951.086 558.903C950.481 558.409 949.628 558.162 948.529 558.162H944.186V564.728H948.529C949.628 564.728 950.481 564.461 951.086 563.926C951.701 563.392 952.009 562.544 952.009 561.384ZM956.623 561.354C956.623 563.987 955.958 565.848 954.626 566.937C953.295 568.026 951.393 568.571 948.922 568.571H944.186V576.59H939.557V554.288H949.27C951.509 554.288 953.295 554.863 954.626 556.013C955.958 557.163 956.623 558.943 956.623 561.354ZM964.385 576.59H959.755V554.288H964.385V576.59ZM980.06 569.857C980.06 570.735 980.201 571.461 980.483 572.036C981.008 573.095 981.961 573.625 983.343 573.625C984.19 573.625 984.927 573.337 985.552 572.762C986.187 572.177 986.505 571.34 986.505 570.251C986.505 568.808 985.92 567.845 984.75 567.361C984.084 567.088 983.035 566.952 981.603 566.952V563.866C983.005 563.846 983.984 563.709 984.538 563.457C985.497 563.034 985.976 562.176 985.976 560.885C985.976 560.048 985.729 559.367 985.234 558.843C984.75 558.318 984.064 558.056 983.177 558.056C982.158 558.056 981.406 558.379 980.922 559.024C980.448 559.67 980.221 560.532 980.241 561.611H976.217C976.257 560.522 976.444 559.488 976.777 558.51C977.13 557.652 977.684 556.86 978.441 556.134C979.006 555.62 979.676 555.226 980.453 554.954C981.23 554.682 982.183 554.546 983.313 554.546C985.411 554.546 987.1 555.09 988.381 556.18C989.672 557.259 990.318 558.711 990.318 560.537C990.318 561.828 989.935 562.918 989.168 563.805C988.684 564.36 988.18 564.738 987.655 564.94C988.048 564.94 988.613 565.278 989.35 565.954C990.449 566.972 990.999 568.364 990.999 570.13C990.999 571.986 990.353 573.62 989.062 575.032C987.781 576.434 985.88 577.135 983.358 577.135C980.251 577.135 978.093 576.121 976.882 574.094C976.247 573.014 975.894 571.602 975.823 569.857H980.06Z" fill="white"/>
    <path d="M558.42 501.353V507.345H563.701C564.75 507.345 565.536 507.224 566.061 506.982C566.989 506.558 567.453 505.721 567.453 504.47C567.453 503.119 567.004 502.211 566.106 501.747C565.602 501.484 564.845 501.353 563.837 501.353H558.42ZM564.805 497.48C566.369 497.51 567.569 497.702 568.406 498.055C569.253 498.408 569.97 498.927 570.555 499.613C571.039 500.178 571.422 500.804 571.704 501.489C571.987 502.175 572.128 502.957 572.128 503.835C572.128 504.894 571.861 505.938 571.326 506.967C570.792 507.985 569.909 508.707 568.678 509.13C569.707 509.544 570.434 510.134 570.857 510.9C571.291 511.657 571.508 512.817 571.508 514.38V515.878C571.508 516.897 571.548 517.588 571.629 517.951C571.75 518.526 572.032 518.95 572.476 519.222V519.782H567.347C567.206 519.287 567.105 518.889 567.044 518.586C566.923 517.961 566.858 517.321 566.848 516.665L566.817 514.592C566.797 513.17 566.535 512.222 566.031 511.748C565.536 511.274 564.603 511.037 563.232 511.037H558.42V519.782H553.866V497.48H564.805ZM582.311 506.407C581.312 506.407 580.535 506.719 579.981 507.345C579.436 507.97 579.093 508.817 578.952 509.887H585.654C585.584 508.747 585.236 507.884 584.61 507.299C583.995 506.704 583.228 506.407 582.311 506.407ZM582.311 502.851C583.682 502.851 584.918 503.108 586.017 503.623C587.117 504.137 588.025 504.949 588.741 506.059C589.386 507.037 589.805 508.172 589.997 509.463C590.108 510.22 590.153 511.309 590.133 512.731H578.846C578.906 514.385 579.426 515.545 580.404 516.211C580.999 516.625 581.715 516.831 582.553 516.831C583.44 516.831 584.162 516.579 584.716 516.075C585.019 515.803 585.286 515.424 585.518 514.94H589.921C589.81 515.919 589.301 516.912 588.393 517.921C586.981 519.525 585.004 520.326 582.462 520.326C580.364 520.326 578.513 519.651 576.909 518.299C575.305 516.947 574.503 514.748 574.503 511.702C574.503 508.848 575.225 506.659 576.667 505.136C578.12 503.613 580.001 502.851 582.311 502.851ZM596.412 514.516C596.503 515.283 596.699 515.828 597.002 516.151C597.536 516.725 598.525 517.013 599.967 517.013C600.815 517.013 601.485 516.887 601.98 516.635C602.484 516.383 602.736 516.004 602.736 515.5C602.736 515.016 602.534 514.648 602.131 514.395C601.728 514.143 600.23 513.71 597.637 513.094C595.771 512.63 594.455 512.05 593.688 511.354C592.922 510.668 592.539 509.68 592.539 508.389C592.539 506.866 593.134 505.559 594.324 504.47C595.524 503.371 597.209 502.821 599.377 502.821C601.435 502.821 603.109 503.234 604.4 504.062C605.702 504.879 606.448 506.296 606.64 508.313H602.328C602.267 507.758 602.111 507.32 601.859 506.997C601.385 506.412 600.578 506.119 599.438 506.119C598.5 506.119 597.829 506.266 597.426 506.558C597.032 506.851 596.835 507.194 596.835 507.587C596.835 508.081 597.047 508.439 597.471 508.661C597.895 508.893 599.392 509.292 601.965 509.856C603.679 510.26 604.965 510.87 605.823 511.687C606.67 512.514 607.094 513.548 607.094 514.789C607.094 516.423 606.483 517.759 605.263 518.798C604.052 519.827 602.176 520.342 599.635 520.342C597.042 520.342 595.126 519.797 593.885 518.708C592.655 517.608 592.039 516.211 592.039 514.516H596.412ZM617.7 516.741C618.961 516.741 619.929 516.292 620.605 515.394C621.281 514.496 621.618 513.22 621.618 511.566C621.618 509.912 621.281 508.641 620.605 507.753C619.929 506.856 618.961 506.407 617.7 506.407C616.439 506.407 615.466 506.856 614.78 507.753C614.104 508.641 613.766 509.912 613.766 511.566C613.766 513.22 614.104 514.496 614.78 515.394C615.466 516.292 616.439 516.741 617.7 516.741ZM626.142 511.566C626.142 513.987 625.446 516.06 624.054 517.785C622.662 519.499 620.549 520.357 617.715 520.357C614.881 520.357 612.767 519.499 611.375 517.785C609.983 516.06 609.287 513.987 609.287 511.566C609.287 509.186 609.983 507.123 611.375 505.378C612.767 503.633 614.881 502.76 617.715 502.76C620.549 502.76 622.662 503.633 624.054 505.378C625.446 507.123 626.142 509.186 626.142 511.566ZM633.647 519.782H629.335V497.48H633.647V519.782ZM648.036 503.29H652.665L646.719 519.782H642.165L636.249 503.29H641.091L644.525 515.455L648.036 503.29ZM661.622 506.407C660.624 506.407 659.847 506.719 659.292 507.345C658.748 507.97 658.405 508.817 658.263 509.887H664.966C664.896 508.747 664.548 507.884 663.922 507.299C663.307 506.704 662.54 506.407 661.622 506.407ZM661.622 502.851C662.994 502.851 664.23 503.108 665.329 503.623C666.429 504.137 667.336 504.949 668.053 506.059C668.698 507.037 669.117 508.172 669.308 509.463C669.419 510.22 669.465 511.309 669.445 512.731H658.158C658.218 514.385 658.738 515.545 659.716 516.211C660.311 516.625 661.027 516.831 661.864 516.831C662.752 516.831 663.473 516.579 664.028 516.075C664.331 515.803 664.598 515.424 664.83 514.94H669.233C669.122 515.919 668.612 516.912 667.705 517.921C666.293 519.525 664.316 520.326 661.774 520.326C659.676 520.326 657.825 519.651 656.221 518.299C654.617 516.947 653.815 514.748 653.815 511.702C653.815 508.848 654.536 506.659 655.979 505.136C657.431 503.613 659.313 502.851 661.622 502.851ZM681.322 502.897C681.402 502.897 681.468 502.902 681.518 502.912C681.579 502.912 681.705 502.917 681.897 502.927V507.345C681.624 507.315 681.382 507.294 681.17 507.284C680.959 507.274 680.787 507.269 680.656 507.269C678.921 507.269 677.756 507.834 677.161 508.964C676.828 509.599 676.662 510.578 676.662 511.899V519.782H672.319V503.29H676.435V506.165C677.1 505.065 677.68 504.314 678.175 503.91C678.982 503.234 680.031 502.897 681.322 502.897ZM687.797 514.516C687.888 515.283 688.085 515.828 688.387 516.151C688.922 516.725 689.911 517.013 691.353 517.013C692.2 517.013 692.871 516.887 693.365 516.635C693.87 516.383 694.122 516.004 694.122 515.5C694.122 515.016 693.92 514.648 693.517 514.395C693.113 514.143 691.615 513.71 689.023 513.094C687.157 512.63 685.841 512.05 685.074 511.354C684.307 510.668 683.924 509.68 683.924 508.389C683.924 506.866 684.519 505.559 685.709 504.47C686.91 503.371 688.594 502.821 690.763 502.821C692.821 502.821 694.495 503.234 695.786 504.062C697.087 504.879 697.834 506.296 698.025 508.313H693.713C693.653 507.758 693.496 507.32 693.244 506.997C692.77 506.412 691.963 506.119 690.823 506.119C689.885 506.119 689.215 506.266 688.811 506.558C688.418 506.851 688.221 507.194 688.221 507.587C688.221 508.081 688.433 508.439 688.856 508.661C689.28 508.893 690.778 509.292 693.35 509.856C695.065 510.26 696.351 510.87 697.208 511.687C698.056 512.514 698.479 513.548 698.479 514.789C698.479 516.423 697.869 517.759 696.648 518.798C695.438 519.827 693.562 520.342 691.02 520.342C688.428 520.342 686.511 519.797 685.271 518.708C684.04 517.608 683.425 516.211 683.425 514.516H687.797Z" fill="white"/>
    <path d="M334.107 460.302V454.643L325.332 457.427L334.107 460.302ZM320.233 460.014V454.749L342.535 446.851V451.905L337.951 453.342V461.558L342.535 463.101V467.973L320.233 460.014ZM334.289 432.992C333.018 432.992 331.893 433.285 330.915 433.87C329.937 434.445 329.447 435.383 329.447 436.684C329.447 438.247 330.189 439.322 331.672 439.907C332.458 440.209 333.457 440.36 334.667 440.36C336.584 440.36 337.93 439.851 338.707 438.832C339.161 438.227 339.388 437.511 339.388 436.684C339.388 435.484 338.924 434.571 337.996 433.945C337.068 433.31 335.832 432.992 334.289 432.992ZM325.68 435.443C325.68 433.517 326.391 431.888 327.813 430.556C329.236 429.215 331.324 428.544 334.077 428.544C336.982 428.544 339.196 429.2 340.719 430.511C342.242 431.812 343.004 433.491 343.004 435.549C343.004 436.86 342.676 437.95 342.02 438.817C341.657 439.291 341.128 439.755 340.432 440.209H349.026V444.476H326.043V440.345H328.479C327.763 439.881 327.198 439.387 326.785 438.863C326.048 437.904 325.68 436.765 325.68 435.443ZM339.494 418.013C339.494 416.753 339.045 415.784 338.147 415.108C337.249 414.433 335.974 414.095 334.319 414.095C332.665 414.095 331.394 414.433 330.507 415.108C329.609 415.784 329.16 416.753 329.16 418.013C329.16 419.274 329.609 420.248 330.507 420.933C331.394 421.609 332.665 421.947 334.319 421.947C335.974 421.947 337.249 421.609 338.147 420.933C339.045 420.248 339.494 419.274 339.494 418.013ZM334.319 409.571C336.74 409.571 338.813 410.267 340.538 411.659C342.252 413.051 343.11 415.164 343.11 417.998C343.11 420.833 342.252 422.946 340.538 424.338C338.813 425.73 336.74 426.426 334.319 426.426C331.939 426.426 329.876 425.73 328.131 424.338C326.386 422.946 325.514 420.833 325.514 417.998C325.514 415.164 326.386 413.051 328.131 411.659C329.876 410.267 331.939 409.571 334.319 409.571ZM342.535 402.066V406.378H320.233V402.066H342.535ZM342.535 393.442V397.754H320.233V393.442H342.535ZM339.494 381.822C339.494 380.561 339.045 379.593 338.147 378.917C337.249 378.242 335.974 377.904 334.319 377.904C332.665 377.904 331.394 378.242 330.507 378.917C329.609 379.593 329.16 380.561 329.16 381.822C329.16 383.083 329.609 384.056 330.507 384.742C331.394 385.418 332.665 385.756 334.319 385.756C335.974 385.756 337.249 385.418 338.147 384.742C339.045 384.056 339.494 383.083 339.494 381.822ZM334.319 373.38C336.74 373.38 338.813 374.076 340.538 375.468C342.252 376.86 343.11 378.973 343.11 381.807C343.11 384.642 342.252 386.755 340.538 388.147C338.813 389.539 336.74 390.235 334.319 390.235C331.939 390.235 329.876 389.539 328.131 388.147C326.386 386.755 325.514 384.642 325.514 381.807C325.514 378.973 326.386 376.86 328.131 375.468C329.876 374.076 331.939 373.38 334.319 373.38ZM331.959 351.804C331.344 351.885 330.789 352.092 330.295 352.425C329.629 352.909 329.296 353.66 329.296 354.679C329.296 356.131 330.017 357.125 331.46 357.66C332.226 357.942 333.245 358.083 334.516 358.083C335.726 358.083 336.7 357.942 337.436 357.66C338.808 357.145 339.494 356.177 339.494 354.755C339.494 353.746 339.221 353.03 338.677 352.606C338.132 352.183 337.426 351.925 336.559 351.835V347.432C337.87 347.533 339.11 348.007 340.281 348.854C342.167 350.206 343.11 352.208 343.11 354.861C343.11 357.513 342.323 359.465 340.75 360.716C339.176 361.967 337.133 362.592 334.622 362.592C331.788 362.592 329.584 361.901 328.01 360.519C326.437 359.137 325.65 357.231 325.65 354.8C325.65 352.732 326.114 351.043 327.042 349.731C327.97 348.41 329.609 347.628 331.959 347.386V351.804ZM342.535 340.003V344.315H320.233V340.003H342.535ZM324.076 331.348V335.721H320.097V331.348H324.076ZM326.043 335.721V331.348H342.535V335.721H326.043ZM329.16 320.651C329.16 321.65 329.473 322.427 330.098 322.981C330.723 323.526 331.571 323.869 332.64 324.01V317.308C331.5 317.378 330.638 317.726 330.053 318.352C329.457 318.967 329.16 319.734 329.16 320.651ZM325.604 320.651C325.604 319.28 325.862 318.044 326.376 316.945C326.89 315.845 327.702 314.937 328.812 314.221C329.79 313.576 330.925 313.157 332.216 312.965C332.973 312.854 334.062 312.809 335.484 312.829V324.116C337.139 324.056 338.298 323.536 338.964 322.558C339.378 321.963 339.585 321.247 339.585 320.409C339.585 319.522 339.332 318.801 338.828 318.246C338.556 317.943 338.177 317.676 337.693 317.444V313.041C338.672 313.152 339.665 313.661 340.674 314.569C342.278 315.981 343.08 317.958 343.08 320.5C343.08 322.598 342.404 324.449 341.052 326.053C339.701 327.657 337.502 328.459 334.455 328.459C331.601 328.459 329.412 327.737 327.889 326.295C326.366 324.842 325.604 322.961 325.604 320.651ZM325.65 300.771C325.65 299.066 326.099 297.674 326.996 296.595C327.884 295.505 329.362 294.961 331.429 294.961H342.535V299.379H332.504C331.636 299.379 330.971 299.495 330.507 299.727C329.659 300.15 329.236 300.957 329.236 302.147C329.236 303.61 329.856 304.614 331.097 305.158C331.752 305.441 332.589 305.582 333.608 305.582H342.535V309.879H326.073V305.718H328.479C327.632 305.163 327.022 304.639 326.648 304.145C325.983 303.257 325.65 302.132 325.65 300.771ZM329.266 292.661H326.194V290.361H321.595V286.094H326.194V283.416H329.266V286.094H337.981C338.657 286.094 339.08 286.009 339.252 285.837C339.413 285.666 339.494 285.141 339.494 284.264C339.494 284.133 339.494 283.996 339.494 283.855C339.484 283.704 339.474 283.558 339.464 283.416H342.686L342.762 285.459C342.832 287.496 342.479 288.888 341.703 289.635C341.209 290.119 340.447 290.361 339.418 290.361H329.266V292.661Z" fill="white"/>
</svg>
